<?xml version="1.0" encoding="UTF-8" standalone="no"?>
<!DOCTYPE svg PUBLIC "-//W3C//DTD SVG 1.1//EN"
 "http://www.w3.org/Graphics/SVG/1.1/DTD/svg11.dtd">
<!-- Generated by graphviz version 10.0.1 (20240210.2158)
 -->
<!-- Pages: 1 -->
<svg width="1478pt" height="316pt"
 viewBox="0.00 0.00 1477.75 316.48" xmlns="http://www.w3.org/2000/svg" xmlns:xlink="http://www.w3.org/1999/xlink">
<g id="graph0" class="graph" transform="scale(1 1) rotate(0) translate(4 312.48)">
<polygon fill="white" stroke="none" points="-4,4 -4,-312.48 1473.75,-312.48 1473.75,4 -4,4"/>
<!-- &#45;5501815088664808257 -->
<g id="node1" class="node">
<title>&#45;5501815088664808257</title>
<polygon fill="#cbcbff" stroke="black" points="1090.72,-202.23 978.72,-202.23 978.72,-166.23 1090.72,-166.23 1090.72,-202.23"/>
<text text-anchor="middle" x="1034.72" y="-179.96" font-family="Times New Roman,serif" font-size="12.00">Add penalty (75536)</text>
</g>
<!-- &#45;522701037893373318 -->
<g id="node5" class="node">
<title>&#45;522701037893373318</title>
<polygon fill="#cdcdff" stroke="black" points="1292.34,-125.23 1196.84,-125.23 1196.84,-89.23 1292.34,-89.23 1292.34,-125.23"/>
<text text-anchor="middle" x="1244.59" y="-102.96" font-family="Times New Roman,serif" font-size="12.00">Payment (73096)</text>
</g>
<!-- &#45;5501815088664808257&#45;&gt;&#45;522701037893373318 -->
<g id="edge1" class="edge">
<title>&#45;5501815088664808257&#45;&gt;&#45;522701037893373318</title>
<path fill="none" stroke="black" stroke-width="1.23" d="M1091.18,-168.88C1106.69,-164.23 1123.47,-158.85 1138.72,-153.23 1157.1,-146.46 1176.88,-138.09 1194.24,-130.35"/>
<polygon fill="black" stroke="black" stroke-width="1.23" points="1195.33,-133.7 1203.01,-126.4 1192.45,-127.32 1195.33,-133.7"/>
<text text-anchor="middle" x="1123.72" y="-165.08" font-family="Times New Roman,serif" font-size="12.00">16557</text>
</g>
<!-- 4860487943073941228 -->
<g id="node6" class="node">
<title>4860487943073941228</title>
<polygon fill="#ffffff" stroke="black" points="1330.22,-266.23 1158.97,-266.23 1158.97,-230.23 1330.22,-230.23 1330.22,-266.23"/>
<text text-anchor="middle" x="1244.59" y="-243.96" font-family="Times New Roman,serif" font-size="12.00">Send Appeal to Prefecture (2497)</text>
</g>
<!-- &#45;5501815088664808257&#45;&gt;4860487943073941228 -->
<g id="edge2" class="edge">
<title>&#45;5501815088664808257&#45;&gt;4860487943073941228</title>
<path fill="none" stroke="black" d="M1088.65,-202.7C1095.39,-204.95 1102.2,-207.18 1108.72,-209.23 1127.37,-215.12 1147.58,-221.15 1166.55,-226.65"/>
<polygon fill="black" stroke="black" points="1165.51,-230 1176.09,-229.41 1167.45,-223.27 1165.51,-230"/>
<text text-anchor="middle" x="1123.72" y="-221.08" font-family="Times New Roman,serif" font-size="12.00">2497</text>
</g>
<!-- 7134561360411110149 -->
<g id="node8" class="node">
<title>7134561360411110149</title>
<polygon fill="#d9d9ff" stroke="black" points="1332.47,-212.23 1156.72,-212.23 1156.72,-176.23 1332.47,-176.23 1332.47,-212.23"/>
<text text-anchor="middle" x="1244.59" y="-189.96" font-family="Times New Roman,serif" font-size="12.00">Send for Credit Collection (56482)</text>
</g>
<!-- &#45;5501815088664808257&#45;&gt;7134561360411110149 -->
<g id="edge3" class="edge">
<title>&#45;5501815088664808257&#45;&gt;7134561360411110149</title>
<path fill="none" stroke="black" stroke-width="1.89" d="M1091.1,-189.09C1097.04,-189.52 1103,-189.91 1108.72,-190.23 1120.05,-190.87 1131.93,-191.4 1143.74,-191.86"/>
<polygon fill="black" stroke="black" stroke-width="1.89" points="1143.51,-195.35 1153.63,-192.22 1143.77,-188.36 1143.51,-195.35"/>
<text text-anchor="middle" x="1123.72" y="-194.08" font-family="Times New Roman,serif" font-size="12.00">56482</text>
</g>
<!-- &#45;8286152546720001902 -->
<g id="node2" class="node">
<title>&#45;8286152546720001902</title>
<polygon fill="#9b9bff" stroke="black" points="254.22,-51.23 138.47,-51.23 138.47,-15.23 254.22,-15.23 254.22,-51.23"/>
<text text-anchor="middle" x="196.34" y="-28.96" font-family="Times New Roman,serif" font-size="12.00">Create Fine (145423)</text>
</g>
<!-- &#45;8286152546720001902&#45;&gt;&#45;522701037893373318 -->
<g id="edge4" class="edge">
<title>&#45;8286152546720001902&#45;&gt;&#45;522701037893373318</title>
<path fill="none" stroke="black" stroke-width="1.73" d="M254.49,-25.28C288.15,-21.27 331.58,-17.23 370.34,-17.23 370.34,-17.23 370.34,-17.23 1035.72,-17.23 1101.1,-17.23 1169.24,-55.19 1208.97,-81.81"/>
<polygon fill="black" stroke="black" stroke-width="1.73" points="1206.78,-84.55 1217,-87.32 1210.74,-78.78 1206.78,-84.55"/>
<text text-anchor="middle" x="681.47" y="-20.08" font-family="Times New Roman,serif" font-size="12.00">46371</text>
</g>
<!-- 3194787505172076737 -->
<g id="node7" class="node">
<title>3194787505172076737</title>
<polygon fill="#bbbbff" stroke="black" points="422.47,-111.23 320.22,-111.23 320.22,-75.23 422.47,-75.23 422.47,-111.23"/>
<text text-anchor="middle" x="371.34" y="-88.96" font-family="Times New Roman,serif" font-size="12.00">Send Fine (99052)</text>
</g>
<!-- &#45;8286152546720001902&#45;&gt;3194787505172076737 -->
<g id="edge5" class="edge">
<title>&#45;8286152546720001902&#45;&gt;3194787505172076737</title>
<path fill="none" stroke="black" stroke-width="2.6" d="M250.66,-51.73C268.4,-57.88 288.33,-64.79 306.76,-71.18"/>
<polygon fill="black" stroke="black" stroke-width="2.6" points="305.55,-74.47 316.14,-74.44 307.84,-67.85 305.55,-74.47"/>
<text text-anchor="middle" x="287.22" y="-72.08" font-family="Times New Roman,serif" font-size="12.00">99052</text>
</g>
<!-- 1442224321078814703 -->
<g id="node3" class="node">
<title>1442224321078814703</title>
<polygon fill="#ffffff" stroke="black" points="912.72,-219.23 714.47,-219.23 714.47,-183.23 912.72,-183.23 912.72,-219.23"/>
<text text-anchor="middle" x="813.59" y="-196.96" font-family="Times New Roman,serif" font-size="12.00">Insert Date Appeal to Prefecture (2497)</text>
</g>
<!-- 1442224321078814703&#45;&gt;&#45;5501815088664808257 -->
<g id="edge6" class="edge">
<title>1442224321078814703&#45;&gt;&#45;5501815088664808257</title>
<path fill="none" stroke="black" d="M912.94,-193.6C931.32,-192.18 950.14,-190.72 967.27,-189.39"/>
<polygon fill="black" stroke="black" points="967.06,-192.92 976.76,-188.65 966.52,-185.94 967.06,-192.92"/>
<text text-anchor="middle" x="945.72" y="-194.08" font-family="Times New Roman,serif" font-size="12.00">2497</text>
</g>
<!-- &#45;3186355603035681173 -->
<g id="node4" class="node">
<title>&#45;3186355603035681173</title>
<polygon fill="#cbcbff" stroke="black" points="648.47,-155.23 488.47,-155.23 488.47,-119.23 648.47,-119.23 648.47,-155.23"/>
<text text-anchor="middle" x="568.47" y="-132.96" font-family="Times New Roman,serif" font-size="12.00">Insert Fine Notification (75536)</text>
</g>
<!-- &#45;3186355603035681173&#45;&gt;&#45;5501815088664808257 -->
<g id="edge7" class="edge">
<title>&#45;3186355603035681173&#45;&gt;&#45;5501815088664808257</title>
<path fill="none" stroke="black" stroke-width="2.11" d="M648.83,-139.53C718.59,-142.26 822.73,-148.04 912.72,-159.98 929.9,-162.26 948.3,-165.52 965.44,-168.92"/>
<polygon fill="black" stroke="black" stroke-width="2.11" points="964.62,-172.32 975.12,-170.89 966.02,-165.46 964.62,-172.32"/>
<text text-anchor="middle" x="813.59" y="-162.08" font-family="Times New Roman,serif" font-size="12.00">69738</text>
</g>
<!-- &#45;3186355603035681173&#45;&gt;1442224321078814703 -->
<g id="edge8" class="edge">
<title>&#45;3186355603035681173&#45;&gt;1442224321078814703</title>
<path fill="none" stroke="black" d="M631.98,-155.67C643.43,-158.94 655.29,-162.25 666.47,-165.23 685.04,-170.2 705,-175.28 724.02,-180.01"/>
<polygon fill="black" stroke="black" points="723.08,-183.38 733.63,-182.38 724.76,-176.58 723.08,-183.38"/>
<text text-anchor="middle" x="681.47" y="-175.08" font-family="Times New Roman,serif" font-size="12.00">2497</text>
</g>
<!-- &#45;3186355603035681173&#45;&gt;&#45;522701037893373318 -->
<g id="edge9" class="edge">
<title>&#45;3186355603035681173&#45;&gt;&#45;522701037893373318</title>
<path fill="none" stroke="black" stroke-width="1.01" d="M648.78,-133.7C786.01,-127.6 1064.62,-115.2 1185.48,-109.82"/>
<polygon fill="black" stroke="black" stroke-width="1.01" points="1185.31,-113.33 1195.15,-109.39 1185,-106.34 1185.31,-113.33"/>
<text text-anchor="middle" x="945.72" y="-123.08" font-family="Times New Roman,serif" font-size="12.00">3301</text>
</g>
<!-- &#45;522701037893373318&#45;&gt;&#45;5501815088664808257 -->
<g id="edge10" class="edge">
<title>&#45;522701037893373318&#45;&gt;&#45;5501815088664808257</title>
<path fill="none" stroke="black" stroke-width="1.01" d="M1196.37,-112.35C1169.85,-116.34 1136.59,-123.26 1108.72,-134.98 1094.12,-141.13 1079.38,-150.36 1067.01,-159.18"/>
<polygon fill="black" stroke="black" stroke-width="1.01" points="1065.26,-156.13 1059.28,-164.88 1069.41,-161.76 1065.26,-156.13"/>
<text text-anchor="middle" x="1123.72" y="-137.08" font-family="Times New Roman,serif" font-size="12.00">3301</text>
</g>
<!-- &#45;522701037893373318&#45;&gt;&#45;522701037893373318 -->
<g id="edge11" class="edge">
<title>&#45;522701037893373318&#45;&gt;&#45;522701037893373318</title>
<path fill="none" stroke="black" stroke-width="1.02" d="M1222.73,-125.39C1219.36,-134.77 1226.65,-143.23 1244.59,-143.23 1254.69,-143.23 1261.41,-140.56 1264.76,-136.54"/>
<polygon fill="black" stroke="black" stroke-width="1.02" points="1268.18,-137.33 1266.23,-126.91 1261.26,-136.27 1268.18,-137.33"/>
<text text-anchor="middle" x="1244.59" y="-146.08" font-family="Times New Roman,serif" font-size="12.00">3736</text>
</g>
<!-- @@endnode -->
<g id="node10" class="node">
<title>@@endnode</title>
<ellipse fill="none" stroke="black" cx="1434.11" cy="-217.23" rx="31.64" ry="31.64"/>
<ellipse fill="none" stroke="black" cx="1434.11" cy="-217.23" rx="35.64" ry="35.64"/>
<text text-anchor="start" x="1424.36" y="-205.21" font-family="Times New Roman,serif" font-size="32.00">■</text>
</g>
<!-- &#45;522701037893373318&#45;&gt;@@endnode -->
<g id="edge17" class="edge">
<title>&#45;522701037893373318&#45;&gt;@@endnode</title>
<path fill="none" stroke="black" d="M1281.66,-125.66C1309.16,-140.02 1347.74,-160.84 1380.47,-180.98 1385.31,-183.96 1390.31,-187.2 1395.23,-190.47"/>
<polygon fill="black" stroke="black" points="1393.01,-193.19 1403.25,-195.9 1396.93,-187.39 1393.01,-193.19"/>
<text text-anchor="middle" x="1365.47" y="-183.08" font-family="Times New Roman,serif" font-size="12.00">66059</text>
</g>
<!-- 4860487943073941228&#45;&gt;@@endnode -->
<g id="edge18" class="edge">
<title>4860487943073941228&#45;&gt;@@endnode</title>
<path fill="none" stroke="black" d="M1330.57,-234.19C1350.1,-230.96 1370.14,-227.64 1387.26,-224.81"/>
<polygon fill="black" stroke="black" points="1387.82,-228.27 1397.11,-223.18 1386.68,-221.36 1387.82,-228.27"/>
<text text-anchor="middle" x="1365.47" y="-233.08" font-family="Times New Roman,serif" font-size="12.00">2497</text>
</g>
<!-- 3194787505172076737&#45;&gt;&#45;3186355603035681173 -->
<g id="edge12" class="edge">
<title>3194787505172076737&#45;&gt;&#45;3186355603035681173</title>
<path fill="none" stroke="black" stroke-width="2.21" d="M422.85,-104.62C438.84,-108.23 457.05,-112.33 475.03,-116.39"/>
<polygon fill="black" stroke="black" stroke-width="2.21" points="474.25,-119.8 484.78,-118.59 475.79,-112.97 474.25,-119.8"/>
<text text-anchor="middle" x="455.47" y="-118.08" font-family="Times New Roman,serif" font-size="12.00">75536</text>
</g>
<!-- 3194787505172076737&#45;&gt;&#45;522701037893373318 -->
<g id="edge13" class="edge">
<title>3194787505172076737&#45;&gt;&#45;522701037893373318</title>
<path fill="none" stroke="black" stroke-width="1.01" d="M422.96,-81.12C462.16,-72.79 517.94,-63.23 567.47,-63.23 567.47,-63.23 567.47,-63.23 1035.72,-63.23 1087.25,-63.23 1144.44,-76.34 1185.77,-88.24"/>
<polygon fill="black" stroke="black" stroke-width="1.01" points="1184.67,-91.57 1195.25,-91.04 1186.65,-84.85 1184.67,-91.57"/>
<text text-anchor="middle" x="813.59" y="-66.08" font-family="Times New Roman,serif" font-size="12.00">3131</text>
</g>
<!-- 3194787505172076737&#45;&gt;@@endnode -->
<g id="edge15" class="edge">
<title>3194787505172076737&#45;&gt;@@endnode</title>
<path fill="none" stroke="black" d="M379.53,-111.43C400.41,-160.9 466.07,-294.23 567.47,-294.23 567.47,-294.23 567.47,-294.23 1245.59,-294.23 1308.93,-294.23 1325.58,-279.83 1380.47,-248.23 1384.55,-245.88 1388.81,-243.41 1393.05,-240.94"/>
<polygon fill="black" stroke="black" points="1394.66,-244.05 1401.52,-235.97 1391.13,-238.01 1394.66,-244.05"/>
<text text-anchor="middle" x="945.72" y="-297.08" font-family="Times New Roman,serif" font-size="12.00">20385</text>
</g>
<!-- 7134561360411110149&#45;&gt;@@endnode -->
<g id="edge16" class="edge">
<title>7134561360411110149&#45;&gt;@@endnode</title>
<path fill="none" stroke="black" d="M1332.92,-198.31C1348.79,-199.69 1365.17,-201.53 1380.47,-203.98 1382.96,-204.39 1385.51,-204.85 1388.08,-205.35"/>
<polygon fill="black" stroke="black" points="1387.31,-208.77 1397.83,-207.48 1388.81,-201.93 1387.31,-208.77"/>
<text text-anchor="middle" x="1365.47" y="-206.08" font-family="Times New Roman,serif" font-size="12.00">56482</text>
</g>
<!-- @@startnode -->
<g id="node9" class="node">
<title>@@startnode</title>
<ellipse fill="none" stroke="black" cx="33.23" cy="-33.23" rx="33.23" ry="33.23"/>
<text text-anchor="start" x="22.73" y="-20.43" font-family="Times New Roman,serif" font-size="34.00">●</text>
</g>
<!-- @@startnode&#45;&gt;&#45;8286152546720001902 -->
<g id="edge14" class="edge">
<title>@@startnode&#45;&gt;&#45;8286152546720001902</title>
<path fill="none" stroke="black" d="M66.84,-33.23C84.06,-33.23 105.88,-33.23 126.63,-33.23"/>
<polygon fill="black" stroke="black" points="126.5,-36.73 136.5,-33.23 126.5,-29.73 126.5,-36.73"/>
<text text-anchor="middle" x="102.47" y="-36.08" font-family="Times New Roman,serif" font-size="12.00">145423</text>
</g>
</g>
</svg>
