<?xml version="1.0" encoding="UTF-8" standalone="no"?>
<!DOCTYPE svg PUBLIC "-//W3C//DTD SVG 1.1//EN"
 "http://www.w3.org/Graphics/SVG/1.1/DTD/svg11.dtd">
<!-- Generated by graphviz version 10.0.1 (20240210.2158)
 -->
<!-- Pages: 1 -->
<svg width="1279pt" height="98pt"
 viewBox="0.00 0.00 1279.00 98.00" xmlns="http://www.w3.org/2000/svg" xmlns:xlink="http://www.w3.org/1999/xlink">
<g id="graph0" class="graph" transform="scale(1 1) rotate(0) translate(4 94)">
<polygon fill="white" stroke="none" points="-4,4 -4,-94 1275,-94 1275,4 -4,4"/>
<!-- &#45;5501815088664808257 -->
<g id="node1" class="node">
<title>&#45;5501815088664808257</title>
<polygon fill="#ededff" stroke="black" points="891.97,-36 779.97,-36 779.97,0 891.97,0 891.97,-36"/>
<text text-anchor="middle" x="835.97" y="-13.72" font-family="Times New Roman,serif" font-size="12.00">Add penalty (56482)</text>
</g>
<!-- 7134561360411110149 -->
<g id="node6" class="node">
<title>7134561360411110149</title>
<polygon fill="#ededff" stroke="black" points="1133.72,-42 957.97,-42 957.97,-6 1133.72,-6 1133.72,-42"/>
<text text-anchor="middle" x="1045.84" y="-19.73" font-family="Times New Roman,serif" font-size="12.00">Send for Credit Collection (56482)</text>
</g>
<!-- &#45;5501815088664808257&#45;&gt;7134561360411110149 -->
<g id="edge1" class="edge">
<title>&#45;5501815088664808257&#45;&gt;7134561360411110149</title>
<path fill="none" stroke="black" stroke-width="2.6" d="M892.4,-19.6C908.33,-20.06 926.22,-20.58 943.98,-21.09"/>
<polygon fill="black" stroke="black" stroke-width="2.6" points="943.8,-24.59 953.9,-21.38 944.01,-17.59 943.8,-24.59"/>
<text text-anchor="middle" x="924.97" y="-23.85" font-family="Times New Roman,serif" font-size="12.00">56482</text>
</g>
<!-- &#45;8286152546720001902 -->
<g id="node2" class="node">
<title>&#45;8286152546720001902</title>
<polygon fill="#9b9bff" stroke="black" points="254.22,-67 138.47,-67 138.47,-31 254.22,-31 254.22,-67"/>
<text text-anchor="middle" x="196.34" y="-44.73" font-family="Times New Roman,serif" font-size="12.00">Create Fine (102853)</text>
</g>
<!-- &#45;522701037893373318 -->
<g id="node4" class="node">
<title>&#45;522701037893373318</title>
<polygon fill="#ffffff" stroke="black" points="535.97,-90 440.47,-90 440.47,-54 535.97,-54 535.97,-90"/>
<text text-anchor="middle" x="488.22" y="-67.72" font-family="Times New Roman,serif" font-size="12.00">Payment (46371)</text>
</g>
<!-- &#45;8286152546720001902&#45;&gt;&#45;522701037893373318 -->
<g id="edge2" class="edge">
<title>&#45;8286152546720001902&#45;&gt;&#45;522701037893373318</title>
<path fill="none" stroke="black" d="M254.61,-53.54C304.97,-57.54 377.95,-63.33 428.69,-67.36"/>
<polygon fill="black" stroke="black" points="428.36,-70.84 438.61,-68.14 428.92,-63.86 428.36,-70.84"/>
<text text-anchor="middle" x="287.22" y="-59.85" font-family="Times New Roman,serif" font-size="12.00">46371</text>
</g>
<!-- 3194787505172076737 -->
<g id="node5" class="node">
<title>3194787505172076737</title>
<polygon fill="#ededff" stroke="black" points="422.47,-44 320.22,-44 320.22,-8 422.47,-8 422.47,-44"/>
<text text-anchor="middle" x="371.34" y="-21.73" font-family="Times New Roman,serif" font-size="12.00">Send Fine (56482)</text>
</g>
<!-- &#45;8286152546720001902&#45;&gt;3194787505172076737 -->
<g id="edge3" class="edge">
<title>&#45;8286152546720001902&#45;&gt;3194787505172076737</title>
<path fill="none" stroke="black" stroke-width="2.6" d="M254.5,-38.42C260.48,-37.46 266.46,-36.54 272.22,-35.75 283.19,-34.24 294.88,-32.87 306.23,-31.66"/>
<polygon fill="black" stroke="black" stroke-width="2.6" points="306.32,-35.17 315.92,-30.68 305.61,-28.21 306.32,-35.17"/>
<text text-anchor="middle" x="287.22" y="-38.85" font-family="Times New Roman,serif" font-size="12.00">56482</text>
</g>
<!-- &#45;3186355603035681173 -->
<g id="node3" class="node">
<title>&#45;3186355603035681173</title>
<polygon fill="#ededff" stroke="black" points="713.97,-38 553.97,-38 553.97,-2 713.97,-2 713.97,-38"/>
<text text-anchor="middle" x="633.97" y="-15.72" font-family="Times New Roman,serif" font-size="12.00">Insert Fine Notification (56482)</text>
</g>
<!-- &#45;3186355603035681173&#45;&gt;&#45;5501815088664808257 -->
<g id="edge4" class="edge">
<title>&#45;3186355603035681173&#45;&gt;&#45;5501815088664808257</title>
<path fill="none" stroke="black" stroke-width="2.6" d="M714.3,-19.21C731.34,-19.04 749.22,-18.86 765.83,-18.69"/>
<polygon fill="black" stroke="black" stroke-width="2.6" points="765.85,-22.19 775.82,-18.59 765.78,-15.19 765.85,-22.19"/>
<text text-anchor="middle" x="746.97" y="-21.85" font-family="Times New Roman,serif" font-size="12.00">56482</text>
</g>
<!-- @@endnode -->
<g id="node8" class="node">
<title>@@endnode</title>
<ellipse fill="none" stroke="black" cx="1235.36" cy="-49" rx="31.64" ry="31.64"/>
<ellipse fill="none" stroke="black" cx="1235.36" cy="-49" rx="35.64" ry="35.64"/>
<text text-anchor="start" x="1225.61" y="-36.98" font-family="Times New Roman,serif" font-size="32.00">■</text>
</g>
<!-- &#45;522701037893373318&#45;&gt;@@endnode -->
<g id="edge8" class="edge">
<title>&#45;522701037893373318&#45;&gt;@@endnode</title>
<path fill="none" stroke="black" d="M536.07,-72C587.54,-72 672.64,-72 745.97,-72 745.97,-72 745.97,-72 1046.84,-72 1095.59,-72 1150.94,-64.25 1188.8,-57.74"/>
<polygon fill="black" stroke="black" points="1189.22,-61.22 1198.46,-56.04 1188.01,-54.33 1189.22,-61.22"/>
<text text-anchor="middle" x="835.97" y="-74.85" font-family="Times New Roman,serif" font-size="12.00">46371</text>
</g>
<!-- 3194787505172076737&#45;&gt;&#45;3186355603035681173 -->
<g id="edge5" class="edge">
<title>3194787505172076737&#45;&gt;&#45;3186355603035681173</title>
<path fill="none" stroke="black" stroke-width="2.6" d="M422.9,-24.84C456.07,-24.07 500.45,-23.05 539.86,-22.14"/>
<polygon fill="black" stroke="black" stroke-width="2.6" points="539.72,-25.65 549.64,-21.92 539.56,-18.65 539.72,-25.65"/>
<text text-anchor="middle" x="488.22" y="-27.85" font-family="Times New Roman,serif" font-size="12.00">56482</text>
</g>
<!-- 7134561360411110149&#45;&gt;@@endnode -->
<g id="edge7" class="edge">
<title>7134561360411110149&#45;&gt;@@endnode</title>
<path fill="none" stroke="black" d="M1134.01,-35.62C1152.98,-38.15 1172.3,-40.73 1188.86,-42.93"/>
<polygon fill="black" stroke="black" points="1187.97,-46.35 1198.34,-44.2 1188.89,-39.41 1187.97,-46.35"/>
<text text-anchor="middle" x="1166.72" y="-44.85" font-family="Times New Roman,serif" font-size="12.00">56482</text>
</g>
<!-- @@startnode -->
<g id="node7" class="node">
<title>@@startnode</title>
<ellipse fill="none" stroke="black" cx="33.23" cy="-49" rx="33.23" ry="33.23"/>
<text text-anchor="start" x="22.73" y="-36.2" font-family="Times New Roman,serif" font-size="34.00">●</text>
</g>
<!-- @@startnode&#45;&gt;&#45;8286152546720001902 -->
<g id="edge6" class="edge">
<title>@@startnode&#45;&gt;&#45;8286152546720001902</title>
<path fill="none" stroke="black" d="M66.84,-49C84.06,-49 105.88,-49 126.63,-49"/>
<polygon fill="black" stroke="black" points="126.5,-52.5 136.5,-49 126.5,-45.5 126.5,-52.5"/>
<text text-anchor="middle" x="102.47" y="-51.85" font-family="Times New Roman,serif" font-size="12.00">102853</text>
</g>
</g>
</svg>
