<?xml version="1.0" encoding="UTF-8" standalone="no"?>
<!DOCTYPE svg PUBLIC "-//W3C//DTD SVG 1.1//EN"
 "http://www.w3.org/Graphics/SVG/1.1/DTD/svg11.dtd">
<!-- Generated by graphviz version 10.0.1 (20240210.2158)
 -->
<!-- Pages: 1 -->
<svg width="1781pt" height="383pt"
 viewBox="0.00 0.00 1780.75 383.25" xmlns="http://www.w3.org/2000/svg" xmlns:xlink="http://www.w3.org/1999/xlink">
<g id="graph0" class="graph" transform="scale(1 1) rotate(0) translate(4 379.25)">
<polygon fill="white" stroke="none" points="-4,4 -4,-379.25 1776.75,-379.25 1776.75,4 -4,4"/>
<!-- &#45;5501815088664808257 -->
<g id="node1" class="node">
<title>&#45;5501815088664808257</title>
<polygon fill="#cacaff" stroke="black" points="112,-270 0,-270 0,-234 112,-234 112,-270"/>
<text text-anchor="middle" x="56" y="-247.72" font-family="Times New Roman,serif" font-size="12.00">Add penalty (78155)</text>
</g>
<!-- 1442224321078814703 -->
<g id="node3" class="node">
<title>1442224321078814703</title>
<polygon fill="#fdfdff" stroke="black" points="370.25,-289 172,-289 172,-253 370.25,-253 370.25,-289"/>
<text text-anchor="middle" x="271.12" y="-266.73" font-family="Times New Roman,serif" font-size="12.00">Insert Date Appeal to Prefecture (3079)</text>
</g>
<!-- &#45;5501815088664808257&#45;&gt;1442224321078814703 -->
<g id="edge1" class="edge">
<title>&#45;5501815088664808257&#45;&gt;1442224321078814703</title>
<path fill="none" stroke="black" d="M112.46,-251.01C126.06,-251.16 140.57,-251.65 154,-252.75 156.08,-252.92 158.19,-253.11 160.3,-253.31"/>
<polygon fill="black" stroke="black" points="159.91,-256.79 170.22,-254.35 160.64,-249.82 159.91,-256.79"/>
<text text-anchor="middle" x="142" y="-254.85" font-family="Times New Roman,serif" font-size="12.00">443</text>
</g>
<!-- &#45;522701037893373318 -->
<g id="node6" class="node">
<title>&#45;522701037893373318</title>
<polygon fill="#ccccff" stroke="black" points="1311,-197 1215.5,-197 1215.5,-161 1311,-161 1311,-197"/>
<text text-anchor="middle" x="1263.25" y="-174.72" font-family="Times New Roman,serif" font-size="12.00">Payment (75634)</text>
</g>
<!-- &#45;5501815088664808257&#45;&gt;&#45;522701037893373318 -->
<g id="edge2" class="edge">
<title>&#45;5501815088664808257&#45;&gt;&#45;522701037893373318</title>
<path fill="none" stroke="black" stroke-width="1.28" d="M112.28,-238.67C155.09,-229.51 216.02,-219 270.12,-219 270.12,-219 270.12,-219 1052.88,-219 1104.63,-219 1162.32,-207.06 1204.02,-196.23"/>
<polygon fill="black" stroke="black" stroke-width="1.28" points="1204.7,-199.67 1213.46,-193.71 1202.9,-192.91 1204.7,-199.67"/>
<text text-anchor="middle" x="628.5" y="-221.85" font-family="Times New Roman,serif" font-size="12.00">18072</text>
</g>
<!-- 4860487943073941228 -->
<g id="node8" class="node">
<title>4860487943073941228</title>
<polygon fill="#fdfdff" stroke="black" points="595.5,-191 424.25,-191 424.25,-155 595.5,-155 595.5,-191"/>
<text text-anchor="middle" x="509.88" y="-168.72" font-family="Times New Roman,serif" font-size="12.00">Send Appeal to Prefecture (3079)</text>
</g>
<!-- &#45;5501815088664808257&#45;&gt;4860487943073941228 -->
<g id="edge3" class="edge">
<title>&#45;5501815088664808257&#45;&gt;4860487943073941228</title>
<path fill="none" stroke="black" stroke-width="1.04" d="M80.93,-233.71C103.12,-218.15 137.79,-197.32 172,-190.75 252.06,-175.36 344.65,-171.46 412.48,-171.1"/>
<polygon fill="black" stroke="black" stroke-width="1.04" points="412.43,-174.6 422.42,-171.08 412.42,-167.6 412.43,-174.6"/>
<text text-anchor="middle" x="271.12" y="-192.85" font-family="Times New Roman,serif" font-size="12.00">2636</text>
</g>
<!-- 7134561360411110149 -->
<g id="node10" class="node">
<title>7134561360411110149</title>
<polygon fill="#d7d7ff" stroke="black" points="1546.75,-106 1371,-106 1371,-70 1546.75,-70 1546.75,-106"/>
<text text-anchor="middle" x="1458.88" y="-83.72" font-family="Times New Roman,serif" font-size="12.00">Send for Credit Collection (58519)</text>
</g>
<!-- &#45;5501815088664808257&#45;&gt;7134561360411110149 -->
<g id="edge4" class="edge">
<title>&#45;5501815088664808257&#45;&gt;7134561360411110149</title>
<path fill="none" stroke="black" stroke-width="1.9" d="M62.43,-233.88C80.96,-176.1 147.51,0 270.12,0 270.12,0 270.12,0 1264.25,0 1324.91,0 1387.45,-36.24 1424.48,-62.21"/>
<polygon fill="black" stroke="black" stroke-width="1.9" points="1422.19,-64.87 1432.35,-67.87 1426.28,-59.19 1422.19,-64.87"/>
<text text-anchor="middle" x="771.88" y="-2.85" font-family="Times New Roman,serif" font-size="12.00">57004</text>
</g>
<!-- &#45;8286152546720001902 -->
<g id="node2" class="node">
<title>&#45;8286152546720001902</title>
<polygon fill="#9b9bff" stroke="black" points="1109.75,-122 994,-122 994,-86 1109.75,-86 1109.75,-122"/>
<text text-anchor="middle" x="1051.88" y="-99.72" font-family="Times New Roman,serif" font-size="12.00">Create Fine (148404)</text>
</g>
<!-- &#45;8286152546720001902&#45;&gt;&#45;522701037893373318 -->
<g id="edge5" class="edge">
<title>&#45;8286152546720001902&#45;&gt;&#45;522701037893373318</title>
<path fill="none" stroke="black" stroke-width="1.73" d="M1104.36,-122.44C1134.42,-133.21 1172.46,-146.84 1203.66,-158.01"/>
<polygon fill="black" stroke="black" stroke-width="1.73" points="1202.19,-161.2 1212.79,-161.28 1204.55,-154.61 1202.19,-161.2"/>
<text text-anchor="middle" x="1182.5" y="-157.85" font-family="Times New Roman,serif" font-size="12.00">46733</text>
</g>
<!-- 3194787505172076737 -->
<g id="node9" class="node">
<title>3194787505172076737</title>
<polygon fill="#babaff" stroke="black" points="1513,-160 1404.75,-160 1404.75,-124 1513,-124 1513,-160"/>
<text text-anchor="middle" x="1458.88" y="-137.72" font-family="Times New Roman,serif" font-size="12.00">Send Fine (102033)</text>
</g>
<!-- &#45;8286152546720001902&#45;&gt;3194787505172076737 -->
<g id="edge6" class="edge">
<title>&#45;8286152546720001902&#45;&gt;3194787505172076737</title>
<path fill="none" stroke="black" stroke-width="2.6" d="M1110.05,-99.82C1170.79,-96.57 1269.4,-94.72 1353,-109 1361.31,-110.42 1362.97,-112.42 1371,-115 1377.6,-117.12 1384.48,-119.31 1391.37,-121.48"/>
<polygon fill="black" stroke="black" stroke-width="2.6" points="1390.18,-124.78 1400.77,-124.43 1392.28,-118.1 1390.18,-124.78"/>
<text text-anchor="middle" x="1263.25" y="-105.85" font-family="Times New Roman,serif" font-size="12.00">101671</text>
</g>
<!-- 1442224321078814703&#45;&gt;&#45;5501815088664808257 -->
<g id="edge7" class="edge">
<title>1442224321078814703&#45;&gt;&#45;5501815088664808257</title>
<path fill="none" stroke="black" stroke-width="1.04" d="M171.59,-270.35C157.6,-269.63 143.42,-268.56 130,-267 127.83,-266.75 125.63,-266.46 123.41,-266.15"/>
<polygon fill="black" stroke="black" stroke-width="1.04" points="124.21,-262.74 113.79,-264.65 123.13,-269.65 124.21,-262.74"/>
<text text-anchor="middle" x="142" y="-271.85" font-family="Times New Roman,serif" font-size="12.00">2636</text>
</g>
<!-- 1442224321078814703&#45;&gt;4860487943073941228 -->
<g id="edge8" class="edge">
<title>1442224321078814703&#45;&gt;4860487943073941228</title>
<path fill="none" stroke="black" d="M316.66,-252.57C355.59,-236.45 412.28,-212.98 454.01,-195.71"/>
<polygon fill="black" stroke="black" points="455.24,-198.99 463.14,-191.93 452.56,-192.52 455.24,-198.99"/>
<text text-anchor="middle" x="397.25" y="-224.85" font-family="Times New Roman,serif" font-size="12.00">443</text>
</g>
<!-- &#45;3186355603035681173 -->
<g id="node4" class="node">
<title>&#45;3186355603035681173</title>
<polygon fill="#cacaff" stroke="black" points="1772.75,-285 1612.75,-285 1612.75,-249 1772.75,-249 1772.75,-285"/>
<text text-anchor="middle" x="1692.75" y="-262.73" font-family="Times New Roman,serif" font-size="12.00">Insert Fine Notification (78155)</text>
</g>
<!-- &#45;3186355603035681173&#45;&gt;&#45;5501815088664808257 -->
<g id="edge9" class="edge">
<title>&#45;3186355603035681173&#45;&gt;&#45;5501815088664808257</title>
<path fill="none" stroke="black" stroke-width="2.13" d="M1665.67,-285.35C1624.16,-312.7 1539.58,-361 1459.88,-361 270.12,-361 270.12,-361 270.12,-361 198.17,-361 126.07,-311.15 86.92,-278.87"/>
<polygon fill="black" stroke="black" stroke-width="2.13" points="89.37,-276.36 79.47,-272.57 84.85,-281.7 89.37,-276.36"/>
<text text-anchor="middle" x="918.25" y="-363.85" font-family="Times New Roman,serif" font-size="12.00">71696</text>
</g>
<!-- &#45;3186355603035681173&#45;&gt;1442224321078814703 -->
<g id="edge10" class="edge">
<title>&#45;3186355603035681173&#45;&gt;1442224321078814703</title>
<path fill="none" stroke="black" stroke-width="1.04" d="M1612.58,-269.85C1491.86,-273.94 1254.51,-281 1052.88,-281 508.88,-281 508.88,-281 508.88,-281 467.41,-281 421.9,-279.45 381.95,-277.57"/>
<polygon fill="black" stroke="black" stroke-width="1.04" points="382.3,-274.08 372.14,-277.1 381.96,-281.07 382.3,-274.08"/>
<text text-anchor="middle" x="1051.88" y="-283.85" font-family="Times New Roman,serif" font-size="12.00">2636</text>
</g>
<!-- &#45;3186355603035681173&#45;&gt;&#45;522701037893373318 -->
<g id="edge11" class="edge">
<title>&#45;3186355603035681173&#45;&gt;&#45;522701037893373318</title>
<path fill="none" stroke="black" stroke-width="1.06" d="M1612.36,-258.83C1547.07,-251.28 1452.37,-238.44 1371,-220 1352.16,-215.73 1332.22,-208.78 1314.74,-201.81"/>
<polygon fill="black" stroke="black" stroke-width="1.06" points="1316.26,-198.65 1305.68,-198.1 1313.61,-205.13 1316.26,-198.65"/>
<text text-anchor="middle" x="1458.88" y="-252.85" font-family="Times New Roman,serif" font-size="12.00">3823</text>
</g>
<!-- 4484453886893394230 -->
<g id="node5" class="node">
<title>4484453886893394230</title>
<polygon fill="#ffffff" stroke="black" points="1149.5,-191 954.25,-191 954.25,-155 1149.5,-155 1149.5,-191"/>
<text text-anchor="middle" x="1051.88" y="-168.72" font-family="Times New Roman,serif" font-size="12.00">Notify Result Appeal to Offender (139)</text>
</g>
<!-- 4484453886893394230&#45;&gt;&#45;522701037893373318 -->
<g id="edge12" class="edge">
<title>4484453886893394230&#45;&gt;&#45;522701037893373318</title>
<path fill="none" stroke="black" d="M1149.9,-175.78C1168.33,-176.31 1187.07,-176.85 1203.83,-177.33"/>
<polygon fill="black" stroke="black" points="1203.48,-180.82 1213.58,-177.61 1203.68,-173.82 1203.48,-180.82"/>
<text text-anchor="middle" x="1182.5" y="-179.85" font-family="Times New Roman,serif" font-size="12.00">139</text>
</g>
<!-- &#45;522701037893373318&#45;&gt;&#45;5501815088664808257 -->
<g id="edge13" class="edge">
<title>&#45;522701037893373318&#45;&gt;&#45;5501815088664808257</title>
<path fill="none" stroke="black" stroke-width="1.06" d="M1250.38,-197.13C1232.02,-223.69 1194.14,-272.84 1149.5,-299 1111.32,-321.37 1097.12,-323 1052.88,-323 270.12,-323 270.12,-323 270.12,-323 208.82,-323 142.46,-296.23 100.35,-275.57"/>
<polygon fill="black" stroke="black" stroke-width="1.06" points="102.13,-272.55 91.62,-271.19 98.99,-278.8 102.13,-272.55"/>
<text text-anchor="middle" x="628.5" y="-325.85" font-family="Times New Roman,serif" font-size="12.00">3823</text>
</g>
<!-- &#45;522701037893373318&#45;&gt;&#45;522701037893373318 -->
<g id="edge14" class="edge">
<title>&#45;522701037893373318&#45;&gt;&#45;522701037893373318</title>
<path fill="none" stroke="black" stroke-width="1.06" d="M1249.18,-197.15C1247.02,-206.54 1251.71,-215 1263.25,-215 1269.56,-215 1273.82,-212.47 1276.04,-208.64"/>
<polygon fill="black" stroke="black" stroke-width="1.06" points="1279.51,-209.07 1277.14,-198.74 1272.55,-208.29 1279.51,-209.07"/>
<text text-anchor="middle" x="1263.25" y="-217.85" font-family="Times New Roman,serif" font-size="12.00">3736</text>
</g>
<!-- &#45;522701037893373318&#45;&gt;3194787505172076737 -->
<g id="edge15" class="edge">
<title>&#45;522701037893373318&#45;&gt;3194787505172076737</title>
<path fill="none" stroke="black" d="M1311.12,-170.04C1335.8,-165.33 1366.44,-159.47 1393.33,-154.33"/>
<polygon fill="black" stroke="black" points="1393.94,-157.78 1403.11,-152.47 1392.63,-150.91 1393.94,-157.78"/>
<text text-anchor="middle" x="1341" y="-168.85" font-family="Times New Roman,serif" font-size="12.00">362</text>
</g>
<!-- &#45;522701037893373318&#45;&gt;7134561360411110149 -->
<g id="edge16" class="edge">
<title>&#45;522701037893373318&#45;&gt;7134561360411110149</title>
<path fill="none" stroke="black" stroke-width="1.02" d="M1281.01,-160.59C1293.21,-148.23 1310.73,-132.48 1329,-122.75 1338.66,-117.6 1349.15,-113.17 1359.83,-109.37"/>
<polygon fill="black" stroke="black" stroke-width="1.02" points="1360.71,-112.76 1369.08,-106.26 1358.49,-106.13 1360.71,-112.76"/>
<text text-anchor="middle" x="1341" y="-125.85" font-family="Times New Roman,serif" font-size="12.00">1515</text>
</g>
<!-- @@endnode -->
<g id="node12" class="node">
<title>@@endnode</title>
<ellipse fill="none" stroke="black" cx="1692.75" cy="-109" rx="31.64" ry="31.64"/>
<ellipse fill="none" stroke="black" cx="1692.75" cy="-109" rx="35.64" ry="35.64"/>
<text text-anchor="start" x="1683" y="-96.97" font-family="Times New Roman,serif" font-size="32.00">■</text>
</g>
<!-- &#45;522701037893373318&#45;&gt;@@endnode -->
<g id="edge24" class="edge">
<title>&#45;522701037893373318&#45;&gt;@@endnode</title>
<path fill="none" stroke="black" d="M1311.49,-188.94C1377.05,-200.64 1498.42,-214.64 1594.75,-182 1618.77,-173.86 1641.63,-157.25 1659.13,-141.93"/>
<polygon fill="black" stroke="black" points="1661.08,-144.88 1666.14,-135.57 1656.38,-139.69 1661.08,-144.88"/>
<text text-anchor="middle" x="1458.88" y="-204.85" font-family="Times New Roman,serif" font-size="12.00">66198</text>
</g>
<!-- &#45;5992698422744006054 -->
<g id="node7" class="node">
<title>&#45;5992698422744006054</title>
<polygon fill="#ffffff" stroke="black" points="882.25,-191 661.5,-191 661.5,-155 882.25,-155 882.25,-191"/>
<text text-anchor="middle" x="771.88" y="-168.72" font-family="Times New Roman,serif" font-size="12.00">Receive Result Appeal from Prefecture (139)</text>
</g>
<!-- &#45;5992698422744006054&#45;&gt;4484453886893394230 -->
<g id="edge17" class="edge">
<title>&#45;5992698422744006054&#45;&gt;4484453886893394230</title>
<path fill="none" stroke="black" d="M882.75,-173C902.41,-173 922.89,-173 942.51,-173"/>
<polygon fill="black" stroke="black" points="942.44,-176.5 952.44,-173 942.44,-169.5 942.44,-176.5"/>
<text text-anchor="middle" x="918.25" y="-175.85" font-family="Times New Roman,serif" font-size="12.00">139</text>
</g>
<!-- 4860487943073941228&#45;&gt;&#45;5992698422744006054 -->
<g id="edge18" class="edge">
<title>4860487943073941228&#45;&gt;&#45;5992698422744006054</title>
<path fill="none" stroke="black" d="M595.65,-173C612.95,-173 631.48,-173 649.77,-173"/>
<polygon fill="black" stroke="black" points="649.6,-176.5 659.6,-173 649.6,-169.5 649.6,-176.5"/>
<text text-anchor="middle" x="628.5" y="-175.85" font-family="Times New Roman,serif" font-size="12.00">139</text>
</g>
<!-- 4860487943073941228&#45;&gt;@@endnode -->
<g id="edge25" class="edge">
<title>4860487943073941228&#45;&gt;@@endnode</title>
<path fill="none" stroke="black" d="M529.52,-154.75C556.34,-129.64 608.42,-84.94 661.5,-62 706.86,-42.39 721.46,-42 770.88,-42 770.88,-42 770.88,-42 1459.88,-42 1528.54,-42 1604.3,-69.45 1649.95,-89.21"/>
<polygon fill="black" stroke="black" points="1648.38,-92.34 1658.94,-93.18 1651.21,-85.94 1648.38,-92.34"/>
<text text-anchor="middle" x="1182.5" y="-44.85" font-family="Times New Roman,serif" font-size="12.00">2940</text>
</g>
<!-- 3194787505172076737&#45;&gt;&#45;3186355603035681173 -->
<g id="edge19" class="edge">
<title>3194787505172076737&#45;&gt;&#45;3186355603035681173</title>
<path fill="none" stroke="black" stroke-width="2.23" d="M1513.48,-159.67C1524.67,-163.93 1536.24,-168.77 1546.75,-174 1585.87,-193.46 1627.57,-221 1656.16,-241.06"/>
<polygon fill="black" stroke="black" stroke-width="2.23" points="1653.88,-243.73 1664.06,-246.66 1657.93,-238.02 1653.88,-243.73"/>
<text text-anchor="middle" x="1579.75" y="-201.85" font-family="Times New Roman,serif" font-size="12.00">78155</text>
</g>
<!-- 3194787505172076737&#45;&gt;&#45;522701037893373318 -->
<g id="edge20" class="edge">
<title>3194787505172076737&#45;&gt;&#45;522701037893373318</title>
<path fill="none" stroke="black" stroke-width="1.05" d="M1404.45,-137.65C1380.96,-137.14 1353.26,-138.45 1329,-144.75 1319.9,-147.11 1310.65,-150.97 1302.11,-155.25"/>
<polygon fill="black" stroke="black" stroke-width="1.05" points="1300.64,-152.07 1293.48,-159.88 1303.95,-158.24 1300.64,-152.07"/>
<text text-anchor="middle" x="1341" y="-147.85" font-family="Times New Roman,serif" font-size="12.00">3131</text>
</g>
<!-- 3194787505172076737&#45;&gt;@@endnode -->
<g id="edge22" class="edge">
<title>3194787505172076737&#45;&gt;@@endnode</title>
<path fill="none" stroke="black" d="M1513.36,-134.39C1553.48,-128.68 1607.82,-120.94 1645.95,-115.52"/>
<polygon fill="black" stroke="black" points="1646.32,-119 1655.73,-114.13 1645.34,-112.07 1646.32,-119"/>
<text text-anchor="middle" x="1579.75" y="-129.85" font-family="Times New Roman,serif" font-size="12.00">20747</text>
</g>
<!-- 7134561360411110149&#45;&gt;@@endnode -->
<g id="edge23" class="edge">
<title>7134561360411110149&#45;&gt;@@endnode</title>
<path fill="none" stroke="black" d="M1547.06,-88.53C1562.96,-89.17 1579.37,-90.18 1594.75,-91.75 1611.89,-93.5 1630.57,-96.55 1646.91,-99.6"/>
<polygon fill="black" stroke="black" points="1645.84,-102.95 1656.32,-101.41 1647.16,-96.08 1645.84,-102.95"/>
<text text-anchor="middle" x="1579.75" y="-94.85" font-family="Times New Roman,serif" font-size="12.00">58519</text>
</g>
<!-- @@startnode -->
<g id="node11" class="node">
<title>@@startnode</title>
<ellipse fill="none" stroke="black" cx="771.88" cy="-104" rx="33.23" ry="33.23"/>
<text text-anchor="start" x="761.38" y="-91.2" font-family="Times New Roman,serif" font-size="34.00">●</text>
</g>
<!-- @@startnode&#45;&gt;&#45;8286152546720001902 -->
<g id="edge21" class="edge">
<title>@@startnode&#45;&gt;&#45;8286152546720001902</title>
<path fill="none" stroke="black" d="M805.58,-104C848.82,-104 926.09,-104 982.38,-104"/>
<polygon fill="black" stroke="black" points="982.19,-107.5 992.19,-104 982.19,-100.5 982.19,-107.5"/>
<text text-anchor="middle" x="918.25" y="-106.85" font-family="Times New Roman,serif" font-size="12.00">148404</text>
</g>
</g>
</svg>
