<?xml version="1.0" encoding="UTF-8" standalone="no"?>
<!DOCTYPE svg PUBLIC "-//W3C//DTD SVG 1.1//EN"
 "http://www.w3.org/Graphics/SVG/1.1/DTD/svg11.dtd">
<!-- Generated by graphviz version 10.0.1 (20240210.2158)
 -->
<!-- Pages: 1 -->
<svg width="549pt" height="79pt"
 viewBox="0.00 0.00 549.00 79.29" xmlns="http://www.w3.org/2000/svg" xmlns:xlink="http://www.w3.org/1999/xlink">
<g id="graph0" class="graph" transform="scale(1 1) rotate(0) translate(4 75.29)">
<polygon fill="white" stroke="none" points="-4,4 -4,-75.29 545,-75.29 545,4 -4,4"/>
<!-- &#45;8286152546720001902 -->
<g id="node1" class="node">
<title>&#45;8286152546720001902</title>
<polygon fill="#ffffff" stroke="black" points="242.22,-53.64 132.47,-53.64 132.47,-17.64 242.22,-17.64 242.22,-53.64"/>
<text text-anchor="middle" x="187.34" y="-31.37" font-family="Times New Roman,serif" font-size="12.00">Create Fine (46371)</text>
</g>
<!-- &#45;522701037893373318 -->
<g id="node2" class="node">
<title>&#45;522701037893373318</title>
<polygon fill="#ffffff" stroke="black" points="403.72,-53.64 308.22,-53.64 308.22,-17.64 403.72,-17.64 403.72,-53.64"/>
<text text-anchor="middle" x="355.97" y="-31.37" font-family="Times New Roman,serif" font-size="12.00">Payment (46371)</text>
</g>
<!-- &#45;8286152546720001902&#45;&gt;&#45;522701037893373318 -->
<g id="edge1" class="edge">
<title>&#45;8286152546720001902&#45;&gt;&#45;522701037893373318</title>
<path fill="none" stroke="black" d="M242.44,-35.64C259.75,-35.64 278.98,-35.64 296.57,-35.64"/>
<polygon fill="black" stroke="black" points="296.35,-39.14 306.35,-35.64 296.35,-32.14 296.35,-39.14"/>
<text text-anchor="middle" x="275.22" y="-38.49" font-family="Times New Roman,serif" font-size="12.00">46371</text>
</g>
<!-- @@endnode -->
<g id="node4" class="node">
<title>@@endnode</title>
<ellipse fill="none" stroke="black" cx="505.36" cy="-35.64" rx="31.64" ry="31.64"/>
<ellipse fill="none" stroke="black" cx="505.36" cy="-35.64" rx="35.64" ry="35.64"/>
<text text-anchor="start" x="495.61" y="-23.62" font-family="Times New Roman,serif" font-size="32.00">■</text>
</g>
<!-- &#45;522701037893373318&#45;&gt;@@endnode -->
<g id="edge3" class="edge">
<title>&#45;522701037893373318&#45;&gt;@@endnode</title>
<path fill="none" stroke="black" d="M404.01,-35.64C421.26,-35.64 440.76,-35.64 457.96,-35.64"/>
<polygon fill="black" stroke="black" points="457.92,-39.14 467.92,-35.64 457.92,-32.14 457.92,-39.14"/>
<text text-anchor="middle" x="436.72" y="-38.49" font-family="Times New Roman,serif" font-size="12.00">46371</text>
</g>
<!-- @@startnode -->
<g id="node3" class="node">
<title>@@startnode</title>
<ellipse fill="none" stroke="black" cx="33.23" cy="-35.64" rx="33.23" ry="33.23"/>
<text text-anchor="start" x="22.73" y="-22.84" font-family="Times New Roman,serif" font-size="34.00">●</text>
</g>
<!-- @@startnode&#45;&gt;&#45;8286152546720001902 -->
<g id="edge2" class="edge">
<title>@@startnode&#45;&gt;&#45;8286152546720001902</title>
<path fill="none" stroke="black" d="M66.87,-35.64C82.62,-35.64 102.12,-35.64 120.77,-35.64"/>
<polygon fill="black" stroke="black" points="120.71,-39.14 130.71,-35.64 120.71,-32.14 120.71,-39.14"/>
<text text-anchor="middle" x="99.47" y="-38.49" font-family="Times New Roman,serif" font-size="12.00">46371</text>
</g>
</g>
</svg>
