<?xml version="1.0" encoding="UTF-8" standalone="no"?>
<!DOCTYPE svg PUBLIC "-//W3C//DTD SVG 1.1//EN"
 "http://www.w3.org/Graphics/SVG/1.1/DTD/svg11.dtd">
<!-- Generated by graphviz version 10.0.1 (20240210.2158)
 -->
<!-- Pages: 1 -->
<svg width="1491pt" height="90pt"
 viewBox="0.00 0.00 1490.75 90.00" xmlns="http://www.w3.org/2000/svg" xmlns:xlink="http://www.w3.org/1999/xlink">
<g id="graph0" class="graph" transform="scale(1 1) rotate(0) translate(4 86)">
<polygon fill="white" stroke="none" points="-4,4 -4,-86 1486.75,-86 1486.75,4 -4,4"/>
<!-- &#45;5501815088664808257 -->
<g id="node1" class="node">
<title>&#45;5501815088664808257</title>
<polygon fill="#ffffff" stroke="black" points="1120.22,-36 1014.22,-36 1014.22,0 1120.22,0 1120.22,-36"/>
<text text-anchor="middle" x="1067.22" y="-13.72" font-family="Times New Roman,serif" font-size="12.00">Add penalty (2497)</text>
</g>
<!-- 4860487943073941228 -->
<g id="node6" class="node">
<title>4860487943073941228</title>
<polygon fill="#ffffff" stroke="black" points="1351.47,-36 1180.22,-36 1180.22,0 1351.47,0 1351.47,-36"/>
<text text-anchor="middle" x="1265.84" y="-13.72" font-family="Times New Roman,serif" font-size="12.00">Send Appeal to Prefecture (2497)</text>
</g>
<!-- &#45;5501815088664808257&#45;&gt;4860487943073941228 -->
<g id="edge1" class="edge">
<title>&#45;5501815088664808257&#45;&gt;4860487943073941228</title>
<path fill="none" stroke="black" d="M1120.65,-18C1135.44,-18 1152.02,-18 1168.52,-18"/>
<polygon fill="black" stroke="black" points="1168.39,-21.5 1178.39,-18 1168.39,-14.5 1168.39,-21.5"/>
<text text-anchor="middle" x="1150.22" y="-20.85" font-family="Times New Roman,serif" font-size="12.00">2497</text>
</g>
<!-- &#45;8286152546720001902 -->
<g id="node2" class="node">
<title>&#45;8286152546720001902</title>
<polygon fill="#9b9bff" stroke="black" points="242.22,-59 132.47,-59 132.47,-23 242.22,-23 242.22,-59"/>
<text text-anchor="middle" x="187.34" y="-36.73" font-family="Times New Roman,serif" font-size="12.00">Create Fine (48868)</text>
</g>
<!-- &#45;522701037893373318 -->
<g id="node5" class="node">
<title>&#45;522701037893373318</title>
<polygon fill="#a0a0ff" stroke="black" points="517.97,-82 422.47,-82 422.47,-46 517.97,-46 517.97,-82"/>
<text text-anchor="middle" x="470.22" y="-59.73" font-family="Times New Roman,serif" font-size="12.00">Payment (46371)</text>
</g>
<!-- &#45;8286152546720001902&#45;&gt;&#45;522701037893373318 -->
<g id="edge2" class="edge">
<title>&#45;8286152546720001902&#45;&gt;&#45;522701037893373318</title>
<path fill="none" stroke="black" stroke-width="2.6" d="M242.5,-45.43C290.04,-49.33 359.13,-54.99 408.53,-59.03"/>
<polygon fill="black" stroke="black" stroke-width="2.6" points="408.05,-62.5 418.3,-59.83 408.62,-55.53 408.05,-62.5"/>
<text text-anchor="middle" x="275.22" y="-51.85" font-family="Times New Roman,serif" font-size="12.00">46371</text>
</g>
<!-- 3194787505172076737 -->
<g id="node7" class="node">
<title>3194787505172076737</title>
<polygon fill="#ffffff" stroke="black" points="404.47,-36 308.22,-36 308.22,0 404.47,0 404.47,-36"/>
<text text-anchor="middle" x="356.34" y="-13.72" font-family="Times New Roman,serif" font-size="12.00">Send Fine (2497)</text>
</g>
<!-- &#45;8286152546720001902&#45;&gt;3194787505172076737 -->
<g id="edge3" class="edge">
<title>&#45;8286152546720001902&#45;&gt;3194787505172076737</title>
<path fill="none" stroke="black" d="M242.43,-30.55C248.42,-29.54 254.44,-28.58 260.22,-27.75 271.92,-26.07 284.48,-24.58 296.51,-23.29"/>
<polygon fill="black" stroke="black" points="296.74,-26.78 306.33,-22.27 296.02,-19.82 296.74,-26.78"/>
<text text-anchor="middle" x="275.22" y="-30.85" font-family="Times New Roman,serif" font-size="12.00">2497</text>
</g>
<!-- 1442224321078814703 -->
<g id="node3" class="node">
<title>1442224321078814703</title>
<polygon fill="#ffffff" stroke="black" points="948.22,-36 749.97,-36 749.97,0 948.22,0 948.22,-36"/>
<text text-anchor="middle" x="849.09" y="-13.72" font-family="Times New Roman,serif" font-size="12.00">Insert Date Appeal to Prefecture (2497)</text>
</g>
<!-- 1442224321078814703&#45;&gt;&#45;5501815088664808257 -->
<g id="edge4" class="edge">
<title>1442224321078814703&#45;&gt;&#45;5501815088664808257</title>
<path fill="none" stroke="black" d="M948.67,-18C966.94,-18 985.58,-18 1002.47,-18"/>
<polygon fill="black" stroke="black" points="1002.34,-21.5 1012.34,-18 1002.34,-14.5 1002.34,-21.5"/>
<text text-anchor="middle" x="981.22" y="-20.85" font-family="Times New Roman,serif" font-size="12.00">2497</text>
</g>
<!-- &#45;3186355603035681173 -->
<g id="node4" class="node">
<title>&#45;3186355603035681173</title>
<polygon fill="#ffffff" stroke="black" points="689.97,-36 535.97,-36 535.97,0 689.97,0 689.97,-36"/>
<text text-anchor="middle" x="612.97" y="-13.72" font-family="Times New Roman,serif" font-size="12.00">Insert Fine Notification (2497)</text>
</g>
<!-- &#45;3186355603035681173&#45;&gt;1442224321078814703 -->
<g id="edge5" class="edge">
<title>&#45;3186355603035681173&#45;&gt;1442224321078814703</title>
<path fill="none" stroke="black" d="M690.31,-18C705.7,-18 722.17,-18 738.45,-18"/>
<polygon fill="black" stroke="black" points="738.16,-21.5 748.16,-18 738.16,-14.5 738.16,-21.5"/>
<text text-anchor="middle" x="719.97" y="-20.85" font-family="Times New Roman,serif" font-size="12.00">2497</text>
</g>
<!-- @@endnode -->
<g id="node9" class="node">
<title>@@endnode</title>
<ellipse fill="none" stroke="black" cx="1447.11" cy="-41" rx="31.64" ry="31.64"/>
<ellipse fill="none" stroke="black" cx="1447.11" cy="-41" rx="35.64" ry="35.64"/>
<text text-anchor="start" x="1437.36" y="-28.98" font-family="Times New Roman,serif" font-size="32.00">■</text>
</g>
<!-- &#45;522701037893373318&#45;&gt;@@endnode -->
<g id="edge9" class="edge">
<title>&#45;522701037893373318&#45;&gt;@@endnode</title>
<path fill="none" stroke="black" d="M518.25,-64C568.09,-64 649.07,-64 718.97,-64 718.97,-64 718.97,-64 1266.84,-64 1312.71,-64 1364.65,-56.5 1400.77,-50.07"/>
<polygon fill="black" stroke="black" points="1401.22,-53.54 1410.42,-48.3 1399.96,-46.66 1401.22,-53.54"/>
<text text-anchor="middle" x="981.22" y="-66.85" font-family="Times New Roman,serif" font-size="12.00">46371</text>
</g>
<!-- 4860487943073941228&#45;&gt;@@endnode -->
<g id="edge8" class="edge">
<title>4860487943073941228&#45;&gt;@@endnode</title>
<path fill="none" stroke="black" d="M1351.75,-28.89C1368.46,-31.04 1385.39,-33.21 1400.21,-35.11"/>
<polygon fill="black" stroke="black" points="1399.73,-38.58 1410.09,-36.38 1400.62,-31.63 1399.73,-38.58"/>
<text text-anchor="middle" x="1381.47" y="-37.85" font-family="Times New Roman,serif" font-size="12.00">2497</text>
</g>
<!-- 3194787505172076737&#45;&gt;&#45;3186355603035681173 -->
<g id="edge6" class="edge">
<title>3194787505172076737&#45;&gt;&#45;3186355603035681173</title>
<path fill="none" stroke="black" d="M404.94,-18C438.42,-18 484.2,-18 524.2,-18"/>
<polygon fill="black" stroke="black" points="524.08,-21.5 534.08,-18 524.08,-14.5 524.08,-21.5"/>
<text text-anchor="middle" x="470.22" y="-20.85" font-family="Times New Roman,serif" font-size="12.00">2497</text>
</g>
<!-- @@startnode -->
<g id="node8" class="node">
<title>@@startnode</title>
<ellipse fill="none" stroke="black" cx="33.23" cy="-41" rx="33.23" ry="33.23"/>
<text text-anchor="start" x="22.73" y="-28.2" font-family="Times New Roman,serif" font-size="34.00">●</text>
</g>
<!-- @@startnode&#45;&gt;&#45;8286152546720001902 -->
<g id="edge7" class="edge">
<title>@@startnode&#45;&gt;&#45;8286152546720001902</title>
<path fill="none" stroke="black" d="M66.87,-41C82.62,-41 102.12,-41 120.77,-41"/>
<polygon fill="black" stroke="black" points="120.71,-44.5 130.71,-41 120.71,-37.5 120.71,-44.5"/>
<text text-anchor="middle" x="99.47" y="-43.85" font-family="Times New Roman,serif" font-size="12.00">48868</text>
</g>
</g>
</svg>
