<?xml version="1.0" encoding="UTF-8" standalone="no"?>
<!DOCTYPE svg PUBLIC "-//W3C//DTD SVG 1.1//EN"
 "http://www.w3.org/Graphics/SVG/1.1/DTD/svg11.dtd">
<!-- Generated by graphviz version 10.0.1 (20240210.2158)
 -->
<!-- Pages: 1 -->
<svg width="2087pt" height="138pt"
 viewBox="0.00 0.00 2086.75 137.89" xmlns="http://www.w3.org/2000/svg" xmlns:xlink="http://www.w3.org/1999/xlink">
<g id="graph0" class="graph" transform="scale(1 1) rotate(0) translate(4 133.89)">
<polygon fill="white" stroke="none" points="-4,4 -4,-133.89 2082.75,-133.89 2082.75,4 -4,4"/>
<!-- &#45;5501815088664808257 -->
<g id="node1" class="node">
<title>&#45;5501815088664808257</title>
<polygon fill="#f9f9ff" stroke="black" points="1036.72,-79.64 930.72,-79.64 930.72,-43.64 1036.72,-43.64 1036.72,-79.64"/>
<text text-anchor="middle" x="983.72" y="-57.37" font-family="Times New Roman,serif" font-size="12.00">Add penalty (2636)</text>
</g>
<!-- 4860487943073941228 -->
<g id="node8" class="node">
<title>4860487943073941228</title>
<polygon fill="#f9f9ff" stroke="black" points="1267.97,-79.64 1096.72,-79.64 1096.72,-43.64 1267.97,-43.64 1267.97,-79.64"/>
<text text-anchor="middle" x="1182.34" y="-57.37" font-family="Times New Roman,serif" font-size="12.00">Send Appeal to Prefecture (2636)</text>
</g>
<!-- &#45;5501815088664808257&#45;&gt;4860487943073941228 -->
<g id="edge1" class="edge">
<title>&#45;5501815088664808257&#45;&gt;4860487943073941228</title>
<path fill="none" stroke="black" stroke-width="1.09" d="M1037.15,-61.64C1051.94,-61.64 1068.52,-61.64 1085.02,-61.64"/>
<polygon fill="black" stroke="black" stroke-width="1.09" points="1084.76,-65.14 1094.76,-61.64 1084.76,-58.14 1084.76,-65.14"/>
<text text-anchor="middle" x="1066.72" y="-64.49" font-family="Times New Roman,serif" font-size="12.00">2636</text>
</g>
<!-- &#45;8286152546720001902 -->
<g id="node2" class="node">
<title>&#45;8286152546720001902</title>
<polygon fill="#9b9bff" stroke="black" points="242.22,-110.64 132.47,-110.64 132.47,-74.64 242.22,-74.64 242.22,-110.64"/>
<text text-anchor="middle" x="187.34" y="-88.37" font-family="Times New Roman,serif" font-size="12.00">Create Fine (49007)</text>
</g>
<!-- &#45;522701037893373318 -->
<g id="node6" class="node">
<title>&#45;522701037893373318</title>
<polygon fill="#a0a0ff" stroke="black" points="1941.47,-87.64 1845.97,-87.64 1845.97,-51.64 1941.47,-51.64 1941.47,-87.64"/>
<text text-anchor="middle" x="1893.72" y="-65.37" font-family="Times New Roman,serif" font-size="12.00">Payment (46510)</text>
</g>
<!-- &#45;8286152546720001902&#45;&gt;&#45;522701037893373318 -->
<g id="edge2" class="edge">
<title>&#45;8286152546720001902&#45;&gt;&#45;522701037893373318</title>
<path fill="none" stroke="black" stroke-width="2.6" d="M242.47,-104.28C273.58,-109.98 313.48,-115.64 349.34,-115.64 349.34,-115.64 349.34,-115.64 1695.34,-115.64 1742.24,-115.64 1793.81,-103.17 1832.47,-91.22"/>
<polygon fill="black" stroke="black" stroke-width="2.6" points="1833.36,-94.61 1841.83,-88.23 1831.24,-87.94 1833.36,-94.61"/>
<text text-anchor="middle" x="983.72" y="-118.49" font-family="Times New Roman,serif" font-size="12.00">46371</text>
</g>
<!-- 3194787505172076737 -->
<g id="node9" class="node">
<title>3194787505172076737</title>
<polygon fill="#f9f9ff" stroke="black" points="398.47,-87.64 302.22,-87.64 302.22,-51.64 398.47,-51.64 398.47,-87.64"/>
<text text-anchor="middle" x="350.34" y="-65.37" font-family="Times New Roman,serif" font-size="12.00">Send Fine (2636)</text>
</g>
<!-- &#45;8286152546720001902&#45;&gt;3194787505172076737 -->
<g id="edge3" class="edge">
<title>&#45;8286152546720001902&#45;&gt;3194787505172076737</title>
<path fill="none" stroke="black" stroke-width="1.09" d="M242.4,-84.92C257.91,-82.7 274.9,-80.28 290.67,-78.02"/>
<polygon fill="black" stroke="black" stroke-width="1.09" points="290.87,-81.53 300.28,-76.65 289.88,-74.6 290.87,-81.53"/>
<text text-anchor="middle" x="272.22" y="-85.49" font-family="Times New Roman,serif" font-size="12.00">2636</text>
</g>
<!-- 1442224321078814703 -->
<g id="node3" class="node">
<title>1442224321078814703</title>
<polygon fill="#f9f9ff" stroke="black" points="870.72,-79.64 672.47,-79.64 672.47,-43.64 870.72,-43.64 870.72,-79.64"/>
<text text-anchor="middle" x="771.59" y="-57.37" font-family="Times New Roman,serif" font-size="12.00">Insert Date Appeal to Prefecture (2636)</text>
</g>
<!-- 1442224321078814703&#45;&gt;&#45;5501815088664808257 -->
<g id="edge4" class="edge">
<title>1442224321078814703&#45;&gt;&#45;5501815088664808257</title>
<path fill="none" stroke="black" stroke-width="1.09" d="M871.2,-61.64C887.51,-61.64 904.03,-61.64 919.18,-61.64"/>
<polygon fill="black" stroke="black" stroke-width="1.09" points="918.83,-65.14 928.83,-61.64 918.83,-58.14 918.83,-65.14"/>
<text text-anchor="middle" x="900.72" y="-64.49" font-family="Times New Roman,serif" font-size="12.00">2636</text>
</g>
<!-- &#45;3186355603035681173 -->
<g id="node4" class="node">
<title>&#45;3186355603035681173</title>
<polygon fill="#f9f9ff" stroke="black" points="612.47,-82.64 458.47,-82.64 458.47,-46.64 612.47,-46.64 612.47,-82.64"/>
<text text-anchor="middle" x="535.47" y="-60.37" font-family="Times New Roman,serif" font-size="12.00">Insert Fine Notification (2636)</text>
</g>
<!-- &#45;3186355603035681173&#45;&gt;1442224321078814703 -->
<g id="edge5" class="edge">
<title>&#45;3186355603035681173&#45;&gt;1442224321078814703</title>
<path fill="none" stroke="black" stroke-width="1.09" d="M612.81,-63.66C628.2,-63.47 644.67,-63.26 660.95,-63.05"/>
<polygon fill="black" stroke="black" stroke-width="1.09" points="660.57,-66.55 670.53,-62.93 660.48,-59.55 660.57,-66.55"/>
<text text-anchor="middle" x="642.47" y="-66.49" font-family="Times New Roman,serif" font-size="12.00">2636</text>
</g>
<!-- 4484453886893394230 -->
<g id="node5" class="node">
<title>4484453886893394230</title>
<polygon fill="#ffffff" stroke="black" points="1791.97,-87.64 1596.72,-87.64 1596.72,-51.64 1791.97,-51.64 1791.97,-87.64"/>
<text text-anchor="middle" x="1694.34" y="-65.37" font-family="Times New Roman,serif" font-size="12.00">Notify Result Appeal to Offender (139)</text>
</g>
<!-- 4484453886893394230&#45;&gt;&#45;522701037893373318 -->
<g id="edge6" class="edge">
<title>4484453886893394230&#45;&gt;&#45;522701037893373318</title>
<path fill="none" stroke="black" d="M1792.3,-69.64C1806.62,-69.64 1821,-69.64 1834.21,-69.64"/>
<polygon fill="black" stroke="black" points="1833.99,-73.14 1843.99,-69.64 1833.99,-66.14 1833.99,-73.14"/>
<text text-anchor="middle" x="1818.97" y="-72.49" font-family="Times New Roman,serif" font-size="12.00">139</text>
</g>
<!-- @@endnode -->
<g id="node11" class="node">
<title>@@endnode</title>
<ellipse fill="none" stroke="black" cx="2043.11" cy="-35.64" rx="31.64" ry="31.64"/>
<ellipse fill="none" stroke="black" cx="2043.11" cy="-35.64" rx="35.64" ry="35.64"/>
<text text-anchor="start" x="2033.36" y="-23.62" font-family="Times New Roman,serif" font-size="32.00">■</text>
</g>
<!-- &#45;522701037893373318&#45;&gt;@@endnode -->
<g id="edge12" class="edge">
<title>&#45;522701037893373318&#45;&gt;@@endnode</title>
<path fill="none" stroke="black" d="M1941.76,-58.79C1959.45,-54.71 1979.51,-50.08 1997.02,-46.04"/>
<polygon fill="black" stroke="black" points="1997.68,-49.48 2006.64,-43.83 1996.11,-42.66 1997.68,-49.48"/>
<text text-anchor="middle" x="1974.47" y="-58.49" font-family="Times New Roman,serif" font-size="12.00">46510</text>
</g>
<!-- &#45;5992698422744006054 -->
<g id="node7" class="node">
<title>&#45;5992698422744006054</title>
<polygon fill="#ffffff" stroke="black" points="1542.72,-84.64 1321.97,-84.64 1321.97,-48.64 1542.72,-48.64 1542.72,-84.64"/>
<text text-anchor="middle" x="1432.34" y="-62.37" font-family="Times New Roman,serif" font-size="12.00">Receive Result Appeal from Prefecture (139)</text>
</g>
<!-- &#45;5992698422744006054&#45;&gt;4484453886893394230 -->
<g id="edge7" class="edge">
<title>&#45;5992698422744006054&#45;&gt;4484453886893394230</title>
<path fill="none" stroke="black" d="M1542.85,-67.91C1556.87,-68.07 1571.21,-68.23 1585.21,-68.4"/>
<polygon fill="black" stroke="black" points="1584.79,-71.89 1594.83,-68.51 1584.87,-64.89 1584.79,-71.89"/>
<text text-anchor="middle" x="1569.72" y="-71.49" font-family="Times New Roman,serif" font-size="12.00">139</text>
</g>
<!-- 4860487943073941228&#45;&gt;&#45;5992698422744006054 -->
<g id="edge8" class="edge">
<title>4860487943073941228&#45;&gt;&#45;5992698422744006054</title>
<path fill="none" stroke="black" d="M1268.34,-63.36C1281.84,-63.63 1296.03,-63.91 1310.16,-64.2"/>
<polygon fill="black" stroke="black" points="1309.89,-67.7 1319.96,-64.4 1310.03,-60.7 1309.89,-67.7"/>
<text text-anchor="middle" x="1294.97" y="-67.49" font-family="Times New Roman,serif" font-size="12.00">139</text>
</g>
<!-- 4860487943073941228&#45;&gt;@@endnode -->
<g id="edge11" class="edge">
<title>4860487943073941228&#45;&gt;@@endnode</title>
<path fill="none" stroke="black" d="M1254.16,-43.16C1303.48,-31.89 1370.97,-19.64 1431.34,-19.64 1431.34,-19.64 1431.34,-19.64 1894.72,-19.64 1929.03,-19.64 1967.57,-23.98 1996.64,-28.14"/>
<polygon fill="black" stroke="black" points="1995.78,-31.55 2006.18,-29.55 1996.8,-24.63 1995.78,-31.55"/>
<text text-anchor="middle" x="1694.34" y="-22.49" font-family="Times New Roman,serif" font-size="12.00">2497</text>
</g>
<!-- 3194787505172076737&#45;&gt;&#45;3186355603035681173 -->
<g id="edge9" class="edge">
<title>3194787505172076737&#45;&gt;&#45;3186355603035681173</title>
<path fill="none" stroke="black" stroke-width="1.09" d="M398.5,-68.36C413.23,-67.95 429.97,-67.5 446.56,-67.04"/>
<polygon fill="black" stroke="black" stroke-width="1.09" points="446.44,-70.55 456.34,-66.78 446.25,-63.55 446.44,-70.55"/>
<text text-anchor="middle" x="428.47" y="-71.49" font-family="Times New Roman,serif" font-size="12.00">2636</text>
</g>
<!-- @@startnode -->
<g id="node10" class="node">
<title>@@startnode</title>
<ellipse fill="none" stroke="black" cx="33.23" cy="-92.64" rx="33.23" ry="33.23"/>
<text text-anchor="start" x="22.73" y="-79.84" font-family="Times New Roman,serif" font-size="34.00">●</text>
</g>
<!-- @@startnode&#45;&gt;&#45;8286152546720001902 -->
<g id="edge10" class="edge">
<title>@@startnode&#45;&gt;&#45;8286152546720001902</title>
<path fill="none" stroke="black" d="M66.87,-92.64C82.62,-92.64 102.12,-92.64 120.77,-92.64"/>
<polygon fill="black" stroke="black" points="120.71,-96.14 130.71,-92.64 120.71,-89.14 120.71,-96.14"/>
<text text-anchor="middle" x="99.47" y="-95.49" font-family="Times New Roman,serif" font-size="12.00">49007</text>
</g>
</g>
</svg>
