<?xml version="1.0" encoding="UTF-8" standalone="no"?>
<!DOCTYPE svg PUBLIC "-//W3C//DTD SVG 1.1//EN"
 "http://www.w3.org/Graphics/SVG/1.1/DTD/svg11.dtd">
<!-- Generated by graphviz version 10.0.1 (20240210.2158)
 -->
<!-- Pages: 1 -->
<svg width="2087pt" height="184pt"
 viewBox="0.00 0.00 2086.75 183.89" xmlns="http://www.w3.org/2000/svg" xmlns:xlink="http://www.w3.org/1999/xlink">
<g id="graph0" class="graph" transform="scale(1 1) rotate(0) translate(4 179.89)">
<polygon fill="white" stroke="none" points="-4,4 -4,-179.89 2082.75,-179.89 2082.75,4 -4,4"/>
<!-- &#45;5501815088664808257 -->
<g id="node1" class="node">
<title>&#45;5501815088664808257</title>
<polygon fill="#f9f9ff" stroke="black" points="1036.72,-94.64 930.72,-94.64 930.72,-58.64 1036.72,-58.64 1036.72,-94.64"/>
<text text-anchor="middle" x="983.72" y="-72.37" font-family="Times New Roman,serif" font-size="12.00">Add penalty (2771)</text>
</g>
<!-- &#45;522701037893373318 -->
<g id="node7" class="node">
<title>&#45;522701037893373318</title>
<polygon fill="#a0a0ff" stroke="black" points="1941.47,-114.64 1845.97,-114.64 1845.97,-78.64 1941.47,-78.64 1941.47,-114.64"/>
<text text-anchor="middle" x="1893.72" y="-92.37" font-family="Times New Roman,serif" font-size="12.00">Payment (46645)</text>
</g>
<!-- &#45;5501815088664808257&#45;&gt;&#45;522701037893373318 -->
<g id="edge1" class="edge">
<title>&#45;5501815088664808257&#45;&gt;&#45;522701037893373318</title>
<path fill="none" stroke="black" d="M1037.03,-94.51C1076.27,-106.32 1131.55,-119.64 1181.34,-119.64 1181.34,-119.64 1181.34,-119.64 1695.34,-119.64 1742.44,-119.64 1795.44,-113.1 1834.65,-107"/>
<polygon fill="black" stroke="black" points="1835.02,-110.48 1844.34,-105.45 1833.92,-103.57 1835.02,-110.48"/>
<text text-anchor="middle" x="1432.34" y="-122.49" font-family="Times New Roman,serif" font-size="12.00">135</text>
</g>
<!-- 4860487943073941228 -->
<g id="node9" class="node">
<title>4860487943073941228</title>
<polygon fill="#f9f9ff" stroke="black" points="1267.97,-83.64 1096.72,-83.64 1096.72,-47.64 1267.97,-47.64 1267.97,-83.64"/>
<text text-anchor="middle" x="1182.34" y="-61.37" font-family="Times New Roman,serif" font-size="12.00">Send Appeal to Prefecture (2636)</text>
</g>
<!-- &#45;5501815088664808257&#45;&gt;4860487943073941228 -->
<g id="edge2" class="edge">
<title>&#45;5501815088664808257&#45;&gt;4860487943073941228</title>
<path fill="none" stroke="black" stroke-width="1.09" d="M1037.15,-73.71C1051.94,-72.88 1068.52,-71.96 1085.02,-71.03"/>
<polygon fill="black" stroke="black" stroke-width="1.09" points="1084.97,-74.54 1094.76,-70.49 1084.58,-67.55 1084.97,-74.54"/>
<text text-anchor="middle" x="1066.72" y="-75.49" font-family="Times New Roman,serif" font-size="12.00">2636</text>
</g>
<!-- 2811143167071128898 -->
<g id="node2" class="node">
<title>2811143167071128898</title>
<polygon fill="#ffffff" stroke="black" points="830.97,-133.64 712.22,-133.64 712.22,-97.64 830.97,-97.64 830.97,-133.64"/>
<text text-anchor="middle" x="771.59" y="-111.37" font-family="Times New Roman,serif" font-size="12.00">Appeal to Judge (135)</text>
</g>
<!-- 2811143167071128898&#45;&gt;&#45;5501815088664808257 -->
<g id="edge3" class="edge">
<title>2811143167071128898&#45;&gt;&#45;5501815088664808257</title>
<path fill="none" stroke="black" d="M831.23,-104.77C856.32,-100.11 885.96,-94.61 912.72,-89.64 914.86,-89.25 917.04,-88.84 919.24,-88.43"/>
<polygon fill="black" stroke="black" points="919.67,-91.91 928.86,-86.65 918.39,-85.03 919.67,-91.91"/>
<text text-anchor="middle" x="900.72" y="-97.49" font-family="Times New Roman,serif" font-size="12.00">135</text>
</g>
<!-- &#45;8286152546720001902 -->
<g id="node3" class="node">
<title>&#45;8286152546720001902</title>
<polygon fill="#9b9bff" stroke="black" points="242.22,-156.64 132.47,-156.64 132.47,-120.64 242.22,-120.64 242.22,-156.64"/>
<text text-anchor="middle" x="187.34" y="-134.37" font-family="Times New Roman,serif" font-size="12.00">Create Fine (49142)</text>
</g>
<!-- &#45;8286152546720001902&#45;&gt;&#45;522701037893373318 -->
<g id="edge4" class="edge">
<title>&#45;8286152546720001902&#45;&gt;&#45;522701037893373318</title>
<path fill="none" stroke="black" stroke-width="2.6" d="M242.47,-150.28C273.58,-155.98 313.48,-161.64 349.34,-161.64 349.34,-161.64 349.34,-161.64 1695.34,-161.64 1749.15,-161.64 1807.25,-139.58 1846.38,-121.16"/>
<polygon fill="black" stroke="black" stroke-width="2.6" points="1847.88,-124.33 1855.35,-116.81 1844.83,-118.03 1847.88,-124.33"/>
<text text-anchor="middle" x="983.72" y="-164.49" font-family="Times New Roman,serif" font-size="12.00">46371</text>
</g>
<!-- 3194787505172076737 -->
<g id="node10" class="node">
<title>3194787505172076737</title>
<polygon fill="#f9f9ff" stroke="black" points="398.47,-133.64 302.22,-133.64 302.22,-97.64 398.47,-97.64 398.47,-133.64"/>
<text text-anchor="middle" x="350.34" y="-111.37" font-family="Times New Roman,serif" font-size="12.00">Send Fine (2771)</text>
</g>
<!-- &#45;8286152546720001902&#45;&gt;3194787505172076737 -->
<g id="edge5" class="edge">
<title>&#45;8286152546720001902&#45;&gt;3194787505172076737</title>
<path fill="none" stroke="black" stroke-width="1.09" d="M242.4,-130.92C257.91,-128.7 274.9,-126.28 290.67,-124.02"/>
<polygon fill="black" stroke="black" stroke-width="1.09" points="290.86,-127.53 300.27,-122.65 289.87,-120.6 290.86,-127.53"/>
<text text-anchor="middle" x="272.22" y="-131.49" font-family="Times New Roman,serif" font-size="12.00">2771</text>
</g>
<!-- 1442224321078814703 -->
<g id="node4" class="node">
<title>1442224321078814703</title>
<polygon fill="#f9f9ff" stroke="black" points="870.72,-79.64 672.47,-79.64 672.47,-43.64 870.72,-43.64 870.72,-79.64"/>
<text text-anchor="middle" x="771.59" y="-57.37" font-family="Times New Roman,serif" font-size="12.00">Insert Date Appeal to Prefecture (2636)</text>
</g>
<!-- 1442224321078814703&#45;&gt;&#45;5501815088664808257 -->
<g id="edge6" class="edge">
<title>1442224321078814703&#45;&gt;&#45;5501815088664808257</title>
<path fill="none" stroke="black" stroke-width="1.09" d="M871.2,-68.68C887.51,-69.85 904.03,-71.03 919.18,-72.11"/>
<polygon fill="black" stroke="black" stroke-width="1.09" points="918.61,-75.58 928.83,-72.8 919.11,-68.59 918.61,-75.58"/>
<text text-anchor="middle" x="900.72" y="-74.49" font-family="Times New Roman,serif" font-size="12.00">2636</text>
</g>
<!-- &#45;3186355603035681173 -->
<g id="node5" class="node">
<title>&#45;3186355603035681173</title>
<polygon fill="#f9f9ff" stroke="black" points="612.47,-133.64 458.47,-133.64 458.47,-97.64 612.47,-97.64 612.47,-133.64"/>
<text text-anchor="middle" x="535.47" y="-111.37" font-family="Times New Roman,serif" font-size="12.00">Insert Fine Notification (2771)</text>
</g>
<!-- &#45;3186355603035681173&#45;&gt;2811143167071128898 -->
<g id="edge7" class="edge">
<title>&#45;3186355603035681173&#45;&gt;2811143167071128898</title>
<path fill="none" stroke="black" d="M612.81,-115.64C641.07,-115.64 672.95,-115.64 700.63,-115.64"/>
<polygon fill="black" stroke="black" points="700.29,-119.14 710.29,-115.64 700.29,-112.14 700.29,-119.14"/>
<text text-anchor="middle" x="642.47" y="-118.49" font-family="Times New Roman,serif" font-size="12.00">135</text>
</g>
<!-- &#45;3186355603035681173&#45;&gt;1442224321078814703 -->
<g id="edge8" class="edge">
<title>&#45;3186355603035681173&#45;&gt;1442224321078814703</title>
<path fill="none" stroke="black" stroke-width="1.09" d="M612.81,-98.04C634.15,-93.11 657.56,-87.71 679.66,-82.62"/>
<polygon fill="black" stroke="black" stroke-width="1.09" points="680.18,-86.09 689.14,-80.43 678.61,-79.27 680.18,-86.09"/>
<text text-anchor="middle" x="642.47" y="-96.49" font-family="Times New Roman,serif" font-size="12.00">2636</text>
</g>
<!-- 4484453886893394230 -->
<g id="node6" class="node">
<title>4484453886893394230</title>
<polygon fill="#fefeff" stroke="black" points="1791.97,-89.64 1596.72,-89.64 1596.72,-53.64 1791.97,-53.64 1791.97,-89.64"/>
<text text-anchor="middle" x="1694.34" y="-67.37" font-family="Times New Roman,serif" font-size="12.00">Notify Result Appeal to Offender (139)</text>
</g>
<!-- 4484453886893394230&#45;&gt;&#45;522701037893373318 -->
<g id="edge9" class="edge">
<title>4484453886893394230&#45;&gt;&#45;522701037893373318</title>
<path fill="none" stroke="black" d="M1792.3,-83.92C1806.62,-85.74 1821,-87.56 1834.21,-89.23"/>
<polygon fill="black" stroke="black" points="1833.64,-92.69 1844,-90.47 1834.52,-85.74 1833.64,-92.69"/>
<text text-anchor="middle" x="1818.97" y="-91.49" font-family="Times New Roman,serif" font-size="12.00">139</text>
</g>
<!-- @@endnode -->
<g id="node12" class="node">
<title>@@endnode</title>
<ellipse fill="none" stroke="black" cx="2043.11" cy="-35.64" rx="31.64" ry="31.64"/>
<ellipse fill="none" stroke="black" cx="2043.11" cy="-35.64" rx="35.64" ry="35.64"/>
<text text-anchor="start" x="2033.36" y="-23.62" font-family="Times New Roman,serif" font-size="32.00">■</text>
</g>
<!-- &#45;522701037893373318&#45;&gt;@@endnode -->
<g id="edge15" class="edge">
<title>&#45;522701037893373318&#45;&gt;@@endnode</title>
<path fill="none" stroke="black" d="M1939.34,-78.18C1958.41,-70.28 1980.58,-61.11 1999.43,-53.31"/>
<polygon fill="black" stroke="black" points="2000.51,-56.65 2008.41,-49.59 1997.83,-50.18 2000.51,-56.65"/>
<text text-anchor="middle" x="1974.47" y="-73.49" font-family="Times New Roman,serif" font-size="12.00">46645</text>
</g>
<!-- &#45;5992698422744006054 -->
<g id="node8" class="node">
<title>&#45;5992698422744006054</title>
<polygon fill="#fefeff" stroke="black" points="1542.72,-83.64 1321.97,-83.64 1321.97,-47.64 1542.72,-47.64 1542.72,-83.64"/>
<text text-anchor="middle" x="1432.34" y="-61.37" font-family="Times New Roman,serif" font-size="12.00">Receive Result Appeal from Prefecture (139)</text>
</g>
<!-- &#45;5992698422744006054&#45;&gt;4484453886893394230 -->
<g id="edge10" class="edge">
<title>&#45;5992698422744006054&#45;&gt;4484453886893394230</title>
<path fill="none" stroke="black" d="M1542.85,-68.17C1556.87,-68.49 1571.21,-68.82 1585.21,-69.15"/>
<polygon fill="black" stroke="black" points="1584.75,-72.64 1594.83,-69.37 1584.91,-65.64 1584.75,-72.64"/>
<text text-anchor="middle" x="1569.72" y="-72.49" font-family="Times New Roman,serif" font-size="12.00">139</text>
</g>
<!-- 4860487943073941228&#45;&gt;&#45;5992698422744006054 -->
<g id="edge11" class="edge">
<title>4860487943073941228&#45;&gt;&#45;5992698422744006054</title>
<path fill="none" stroke="black" d="M1268.34,-65.64C1281.84,-65.64 1296.03,-65.64 1310.16,-65.64"/>
<polygon fill="black" stroke="black" points="1309.96,-69.14 1319.96,-65.64 1309.96,-62.14 1309.96,-69.14"/>
<text text-anchor="middle" x="1294.97" y="-68.49" font-family="Times New Roman,serif" font-size="12.00">139</text>
</g>
<!-- 4860487943073941228&#45;&gt;@@endnode -->
<g id="edge14" class="edge">
<title>4860487943073941228&#45;&gt;@@endnode</title>
<path fill="none" stroke="black" d="M1246.97,-47.2C1296.72,-34.4 1367.85,-19.64 1431.34,-19.64 1431.34,-19.64 1431.34,-19.64 1894.72,-19.64 1929.03,-19.64 1967.57,-23.98 1996.64,-28.14"/>
<polygon fill="black" stroke="black" points="1995.78,-31.55 2006.18,-29.55 1996.8,-24.63 1995.78,-31.55"/>
<text text-anchor="middle" x="1694.34" y="-22.49" font-family="Times New Roman,serif" font-size="12.00">2497</text>
</g>
<!-- 3194787505172076737&#45;&gt;&#45;3186355603035681173 -->
<g id="edge12" class="edge">
<title>3194787505172076737&#45;&gt;&#45;3186355603035681173</title>
<path fill="none" stroke="black" stroke-width="1.09" d="M398.5,-115.64C413.23,-115.64 429.97,-115.64 446.56,-115.64"/>
<polygon fill="black" stroke="black" stroke-width="1.09" points="446.33,-119.14 456.33,-115.64 446.33,-112.14 446.33,-119.14"/>
<text text-anchor="middle" x="428.47" y="-118.49" font-family="Times New Roman,serif" font-size="12.00">2771</text>
</g>
<!-- @@startnode -->
<g id="node11" class="node">
<title>@@startnode</title>
<ellipse fill="none" stroke="black" cx="33.23" cy="-138.64" rx="33.23" ry="33.23"/>
<text text-anchor="start" x="22.73" y="-125.84" font-family="Times New Roman,serif" font-size="34.00">●</text>
</g>
<!-- @@startnode&#45;&gt;&#45;8286152546720001902 -->
<g id="edge13" class="edge">
<title>@@startnode&#45;&gt;&#45;8286152546720001902</title>
<path fill="none" stroke="black" d="M66.87,-138.64C82.62,-138.64 102.12,-138.64 120.77,-138.64"/>
<polygon fill="black" stroke="black" points="120.71,-142.14 130.71,-138.64 120.71,-135.14 120.71,-142.14"/>
<text text-anchor="middle" x="99.47" y="-141.49" font-family="Times New Roman,serif" font-size="12.00">49142</text>
</g>
</g>
</svg>
