<?xml version="1.0" encoding="UTF-8" standalone="no"?>
<!DOCTYPE svg PUBLIC "-//W3C//DTD SVG 1.1//EN"
 "http://www.w3.org/Graphics/SVG/1.1/DTD/svg11.dtd">
<!-- Generated by graphviz version 12.1.2 (20240928.0832)
 -->
<!-- Pages: 1 -->
<svg width="1501pt" height="971pt"
 viewBox="0.00 0.00 1501.00 971.19" xmlns="http://www.w3.org/2000/svg" xmlns:xlink="http://www.w3.org/1999/xlink">
<g id="graph0" class="graph" transform="scale(1 1) rotate(0) translate(4 967.19)">
<polygon fill="white" stroke="none" points="-4,4 -4,-967.19 1497,-967.19 1497,4 -4,4"/>
<!-- 3787343957651093219 -->
<g id="node1" class="node">
<title>3787343957651093219</title>
<polygon fill="#cacaff" stroke="black" points="1076.5,-847.54 961.5,-847.54 961.5,-811.54 1076.5,-811.54 1076.5,-847.54"/>
<text text-anchor="middle" x="1019" y="-825.26" font-family="Times New Roman,serif" font-size="12.00">Add penalty (79860)</text>
</g>
<!-- 2066746601693270086 -->
<g id="node2" class="node">
<title>2066746601693270086</title>
<polygon fill="#ffffff" stroke="black" points="778.88,-761.29 657.12,-761.29 657.12,-725.29 778.88,-725.29 778.88,-761.29"/>
<text text-anchor="middle" x="718" y="-739.01" font-family="Times New Roman,serif" font-size="12.00">Appeal to Judge (555)</text>
</g>
<!-- 3787343957651093219&#45;&gt;2066746601693270086 -->
<g id="edge1" class="edge">
<title>3787343957651093219&#45;&gt;2066746601693270086</title>
<path fill="none" stroke="black" d="M961.03,-824.68C897.72,-819.73 800.95,-809.79 768,-793.54 756.85,-788.04 746.65,-779.1 738.41,-770.34"/>
<polygon fill="black" stroke="black" points="741.1,-768.1 731.86,-762.91 735.85,-772.73 741.1,-768.1"/>
<text text-anchor="middle" x="774" y="-782.14" font-family="Times New Roman,serif" font-size="12.00">80</text>
</g>
<!-- &#45;4008819772462267442 -->
<g id="node4" class="node">
<title>&#45;4008819772462267442</title>
<polygon fill="#fcfcff" stroke="black" points="731,-675.04 529,-675.04 529,-639.04 731,-639.04 731,-675.04"/>
<text text-anchor="middle" x="630" y="-652.76" font-family="Times New Roman,serif" font-size="12.00">Insert Date Appeal to Prefecture (4188)</text>
</g>
<!-- 3787343957651093219&#45;&gt;&#45;4008819772462267442 -->
<g id="edge2" class="edge">
<title>3787343957651093219&#45;&gt;&#45;4008819772462267442</title>
<path fill="none" stroke="black" stroke-width="1.01" d="M961.15,-815.73C940.17,-810.14 916.57,-802.73 896,-793.54 844.16,-770.36 838.29,-751.66 788,-725.29 755.29,-708.13 717.24,-691.83 686.67,-679.57"/>
<polygon fill="black" stroke="black" stroke-width="1.01" points="688.2,-676.42 677.61,-675.98 685.61,-682.92 688.2,-676.42"/>
<text text-anchor="middle" x="850.42" y="-739.01" font-family="Times New Roman,serif" font-size="12.00">658</text>
</g>
<!-- &#45;7696327180329825838 -->
<g id="node6" class="node">
<title>&#45;7696327180329825838</title>
<polygon fill="#fefeff" stroke="black" points="1116.38,-243.79 913.62,-243.79 913.62,-207.79 1116.38,-207.79 1116.38,-243.79"/>
<text text-anchor="middle" x="1015" y="-221.51" font-family="Times New Roman,serif" font-size="12.00">Notify Result Appeal to Offender (896)</text>
</g>
<!-- 3787343957651093219&#45;&gt;&#45;7696327180329825838 -->
<g id="edge3" class="edge">
<title>3787343957651093219&#45;&gt;&#45;7696327180329825838</title>
<path fill="none" stroke="black" d="M1076.77,-825.09C1168.7,-818 1338,-797.7 1338,-744.29 1338,-744.29 1338,-744.29 1338,-397.29 1338,-324.74 1309.57,-298.49 1247,-261.79 1226.47,-249.74 1176.31,-241.4 1127.87,-235.89"/>
<polygon fill="black" stroke="black" points="1128.42,-232.43 1118.1,-234.82 1127.66,-239.38 1128.42,-232.43"/>
<text text-anchor="middle" x="1344" y="-523.39" font-family="Times New Roman,serif" font-size="12.00">53</text>
</g>
<!-- 8956805017555851408 -->
<g id="node7" class="node">
<title>8956805017555851408</title>
<polygon fill="#cbcbff" stroke="black" points="585.88,-330.04 488.12,-330.04 488.12,-294.04 585.88,-294.04 585.88,-330.04"/>
<text text-anchor="middle" x="537" y="-307.76" font-family="Times New Roman,serif" font-size="12.00">Payment (77601)</text>
</g>
<!-- 3787343957651093219&#45;&gt;8956805017555851408 -->
<g id="edge4" class="edge">
<title>3787343957651093219&#45;&gt;8956805017555851408</title>
<path fill="none" stroke="black" stroke-width="1.29" d="M1049.54,-811.15C1056.57,-806.13 1063.57,-800.18 1069,-793.54 1078.88,-781.43 1078.31,-776.19 1083,-761.29 1108.84,-679.17 1211.8,-443.16 1153,-380.29 1132.62,-358.49 913.77,-370.22 885,-362.29 871.54,-358.58 870.38,-352.03 857,-348.04 769.53,-321.95 663.41,-314.9 598.05,-313.22"/>
<polygon fill="black" stroke="black" stroke-width="1.29" points="598.35,-309.72 588.28,-313.01 598.2,-316.72 598.35,-309.72"/>
<text text-anchor="middle" x="1167.28" y="-566.51" font-family="Times New Roman,serif" font-size="12.00">18621</text>
</g>
<!-- 7302858260821024098 -->
<g id="node8" class="node">
<title>7302858260821024098</title>
<polygon fill="#fefeff" stroke="black" points="1143.5,-416.29 914.5,-416.29 914.5,-380.29 1143.5,-380.29 1143.5,-416.29"/>
<text text-anchor="middle" x="1029" y="-394.01" font-family="Times New Roman,serif" font-size="12.00">Receive Result Appeal from Prefecture (999)</text>
</g>
<!-- 3787343957651093219&#45;&gt;7302858260821024098 -->
<g id="edge5" class="edge">
<title>3787343957651093219&#45;&gt;7302858260821024098</title>
<path fill="none" stroke="black" stroke-width="1.01" d="M1039.36,-811.36C1044.29,-806.15 1049,-800.06 1052,-793.54 1090.28,-710.4 1069.1,-680.18 1074,-588.79 1077.67,-520.22 1104.17,-495.97 1074,-434.29 1072.25,-430.71 1069.94,-427.39 1067.29,-424.34"/>
<polygon fill="black" stroke="black" stroke-width="1.01" points="1069.82,-421.93 1060.19,-417.52 1064.97,-426.97 1069.82,-421.93"/>
<text text-anchor="middle" x="1082.32" y="-609.64" font-family="Times New Roman,serif" font-size="12.00">351</text>
</g>
<!-- &#45;6638202949322909420 -->
<g id="node9" class="node">
<title>&#45;6638202949322909420</title>
<polygon fill="#fcfcff" stroke="black" points="859.12,-502.54 684.88,-502.54 684.88,-466.54 859.12,-466.54 859.12,-502.54"/>
<text text-anchor="middle" x="772" y="-480.26" font-family="Times New Roman,serif" font-size="12.00">Send Appeal to Prefecture (4141)</text>
</g>
<!-- 3787343957651093219&#45;&gt;&#45;6638202949322909420 -->
<g id="edge6" class="edge">
<title>3787343957651093219&#45;&gt;&#45;6638202949322909420</title>
<path fill="none" stroke="black" stroke-width="1.05" d="M1001.74,-811.15C996.52,-805.65 990.89,-799.47 986,-793.54 962.25,-764.72 963.13,-751.96 937,-725.29 910.96,-698.69 893.68,-703.75 870,-675.04 821.44,-616.15 832.7,-586.9 795,-520.54 793.47,-517.84 791.81,-515.08 790.11,-512.34"/>
<polygon fill="black" stroke="black" stroke-width="1.05" points="793.13,-510.55 784.77,-504.04 787.24,-514.34 793.13,-510.55"/>
<text text-anchor="middle" x="882" y="-652.76" font-family="Times New Roman,serif" font-size="12.00">2915</text>
</g>
<!-- 3117666911775492610 -->
<g id="node11" class="node">
<title>3117666911775492610</title>
<polygon fill="#d7d7ff" stroke="black" points="1033.5,-157.54 852.5,-157.54 852.5,-121.54 1033.5,-121.54 1033.5,-157.54"/>
<text text-anchor="middle" x="943" y="-135.26" font-family="Times New Roman,serif" font-size="12.00">Send for Credit Collection (59013)</text>
</g>
<!-- 3787343957651093219&#45;&gt;3117666911775492610 -->
<g id="edge7" class="edge">
<title>3787343957651093219&#45;&gt;3117666911775492610</title>
<path fill="none" stroke="black" stroke-width="1.88" d="M1076.59,-829.48C1196.73,-829.9 1463,-822.06 1463,-744.29 1463,-744.29 1463,-744.29 1463,-354.16 1463,-200.51 1316.27,-211.99 1167,-175.54 1128.09,-166.03 1084.73,-158.56 1046.6,-152.99"/>
<polygon fill="black" stroke="black" stroke-width="1.88" points="1047.1,-149.53 1036.7,-151.58 1046.11,-156.46 1047.1,-149.53"/>
<text text-anchor="middle" x="1478" y="-480.26" font-family="Times New Roman,serif" font-size="12.00">57182</text>
</g>
<!-- 2066746601693270086&#45;&gt;3787343957651093219 -->
<g id="edge8" class="edge">
<title>2066746601693270086&#45;&gt;3787343957651093219</title>
<path fill="none" stroke="black" d="M749.61,-761.6C770.25,-772.23 798.07,-785.34 824,-793.54 864.87,-806.46 912.15,-815.09 949.92,-820.55"/>
<polygon fill="black" stroke="black" points="949.43,-824.02 959.81,-821.94 950.4,-817.09 949.43,-824.02"/>
<text text-anchor="middle" x="833" y="-782.14" font-family="Times New Roman,serif" font-size="12.00">281</text>
</g>
<!-- 2066746601693270086&#45;&gt;&#45;4008819772462267442 -->
<g id="edge9" class="edge">
<title>2066746601693270086&#45;&gt;&#45;4008819772462267442</title>
<path fill="none" stroke="black" d="M699.77,-724.83C687.26,-712.86 670.46,-696.78 656.49,-683.39"/>
<polygon fill="black" stroke="black" points="658.95,-680.9 649.3,-676.52 654.11,-685.96 658.95,-680.9"/>
<text text-anchor="middle" x="685.27" y="-695.89" font-family="Times New Roman,serif" font-size="12.00">15</text>
</g>
<!-- 2066746601693270086&#45;&gt;&#45;7696327180329825838 -->
<g id="edge10" class="edge">
<title>2066746601693270086&#45;&gt;&#45;7696327180329825838</title>
<path fill="none" stroke="black" d="M779.08,-726.33C780.74,-725.97 782.38,-725.62 784,-725.29 834.66,-714.82 847.94,-715.59 899,-707.29 1072.36,-679.08 1181.47,-736.82 1276,-588.79 1315.55,-526.86 1282.07,-310.44 1227,-261.79 1211.6,-248.18 1170.2,-239.81 1128.03,-234.68"/>
<polygon fill="black" stroke="black" points="1128.56,-231.21 1118.23,-233.55 1127.76,-238.17 1128.56,-231.21"/>
<text text-anchor="middle" x="1296.26" y="-480.26" font-family="Times New Roman,serif" font-size="12.00">9</text>
</g>
<!-- 2066746601693270086&#45;&gt;8956805017555851408 -->
<g id="edge11" class="edge">
<title>2066746601693270086&#45;&gt;8956805017555851408</title>
<path fill="none" stroke="black" d="M656.9,-737.8C558.79,-730.37 375.83,-715.52 364,-707.29 344.01,-693.38 340,-682.39 340,-658.04 340,-658.04 340,-658.04 340,-397.29 340,-337.13 418.62,-319.36 476.52,-314.42"/>
<polygon fill="black" stroke="black" points="476.57,-317.93 486.29,-313.71 476.06,-310.95 476.57,-317.93"/>
<text text-anchor="middle" x="346" y="-523.39" font-family="Times New Roman,serif" font-size="12.00">70</text>
</g>
<!-- 2066746601693270086&#45;&gt;7302858260821024098 -->
<g id="edge12" class="edge">
<title>2066746601693270086&#45;&gt;7302858260821024098</title>
<path fill="none" stroke="black" d="M758.67,-724.83C784.22,-714.41 818.09,-701.58 849,-693.04 892.1,-681.12 915.14,-705.37 948,-675.04 988.68,-637.49 992.71,-486.17 1012,-434.29 1012.93,-431.78 1013.99,-429.2 1015.1,-426.65"/>
<polygon fill="black" stroke="black" points="1018.16,-428.36 1019.21,-417.82 1011.82,-425.4 1018.16,-428.36"/>
<text text-anchor="middle" x="992.2" y="-566.51" font-family="Times New Roman,serif" font-size="12.00">1</text>
</g>
<!-- 2066746601693270086&#45;&gt;&#45;6638202949322909420 -->
<g id="edge13" class="edge">
<title>2066746601693270086&#45;&gt;&#45;6638202949322909420</title>
<path fill="none" stroke="black" d="M724.52,-724.8C729.33,-711.34 735.77,-692.21 740,-675.04 753.91,-618.62 763.7,-551.26 768.54,-513.96"/>
<polygon fill="black" stroke="black" points="771.96,-514.82 769.75,-504.46 765.02,-513.94 771.96,-514.82"/>
<text text-anchor="middle" x="757.17" y="-609.64" font-family="Times New Roman,serif" font-size="12.00">9</text>
</g>
<!-- 7532801311523443952 -->
<g id="node10" class="node">
<title>7532801311523443952</title>
<polygon fill="#b9b9ff" stroke="black" points="312.25,-588.79 201.75,-588.79 201.75,-552.79 312.25,-552.79 312.25,-588.79"/>
<text text-anchor="middle" x="257" y="-566.51" font-family="Times New Roman,serif" font-size="12.00">Send Fine (103987)</text>
</g>
<!-- 2066746601693270086&#45;&gt;7532801311523443952 -->
<g id="edge14" class="edge">
<title>2066746601693270086&#45;&gt;7532801311523443952</title>
<path fill="none" stroke="black" d="M656.78,-741.02C540.63,-738.12 297.08,-729.44 266,-707.29 233.51,-684.13 240.04,-632.38 248.2,-599.96"/>
<polygon fill="black" stroke="black" points="251.54,-601.01 250.81,-590.44 244.79,-599.16 251.54,-601.01"/>
<text text-anchor="middle" x="247.54" y="-652.76" font-family="Times New Roman,serif" font-size="12.00">4</text>
</g>
<!-- 2066746601693270086&#45;&gt;3117666911775492610 -->
<g id="edge15" class="edge">
<title>2066746601693270086&#45;&gt;3117666911775492610</title>
<path fill="none" stroke="black" d="M779.05,-726.16C780.71,-725.85 782.37,-725.56 784,-725.29 888.22,-708.04 916.08,-719.58 1021,-707.29 1111.73,-696.65 1135.89,-699.15 1224,-675.04 1294.07,-655.86 1376,-687.56 1376,-614.91 1376,-614.91 1376,-614.91 1376,-440.41 1376,-280.95 1284.66,-227.78 1134,-175.54 1105.76,-165.74 1074.16,-158.53 1044.93,-153.3"/>
<polygon fill="black" stroke="black" points="1045.8,-149.89 1035.35,-151.64 1044.6,-156.79 1045.8,-149.89"/>
<text text-anchor="middle" x="1382" y="-437.14" font-family="Times New Roman,serif" font-size="12.00">32</text>
</g>
<!-- @@endnode -->
<g id="node13" class="node">
<title>@@endnode</title>
<ellipse fill="none" stroke="black" cx="745" cy="-35.64" rx="31.64" ry="31.64"/>
<ellipse fill="none" stroke="black" cx="745" cy="-35.64" rx="35.64" ry="35.64"/>
<text text-anchor="start" x="735.25" y="-23.62" font-family="Times New Roman,serif" font-size="32.00">■</text>
</g>
<!-- 2066746601693270086&#45;&gt;@@endnode -->
<g id="edge76" class="edge">
<title>2066746601693270086&#45;&gt;@@endnode</title>
<path fill="none" stroke="black" d="M656.81,-738.22C520.95,-729.18 205.59,-708.16 200,-707.29 109.55,-693.2 0,-749.58 0,-658.04 0,-658.04 0,-658.04 0,-138.54 0,-67.78 534.3,-43.79 697.94,-38.1"/>
<polygon fill="black" stroke="black" points="697.68,-41.61 707.55,-37.77 697.44,-34.62 697.68,-41.61"/>
<text text-anchor="middle" x="9" y="-394.01" font-family="Times New Roman,serif" font-size="12.00">134</text>
</g>
<!-- &#45;856100964607189629 -->
<g id="node3" class="node">
<title>&#45;856100964607189629</title>
<polygon fill="#9b9bff" stroke="black" points="224.62,-847.54 107.38,-847.54 107.38,-811.54 224.62,-811.54 224.62,-847.54"/>
<text text-anchor="middle" x="166" y="-825.26" font-family="Times New Roman,serif" font-size="12.00">Create Fine (150370)</text>
</g>
<!-- &#45;856100964607189629&#45;&gt;2066746601693270086 -->
<g id="edge16" class="edge">
<title>&#45;856100964607189629&#45;&gt;2066746601693270086</title>
<path fill="none" stroke="black" d="M225.07,-819.52C326.88,-803.98 535.07,-772.21 645.49,-755.35"/>
<polygon fill="black" stroke="black" points="645.98,-758.82 655.34,-753.85 644.92,-751.9 645.98,-758.82"/>
<text text-anchor="middle" x="478.05" y="-782.14" font-family="Times New Roman,serif" font-size="12.00">4</text>
</g>
<!-- &#45;856100964607189629&#45;&gt;&#45;4008819772462267442 -->
<g id="edge17" class="edge">
<title>&#45;856100964607189629&#45;&gt;&#45;4008819772462267442</title>
<path fill="none" stroke="black" d="M213.48,-811.09C299.12,-779.62 479.2,-713.45 571.99,-679.35"/>
<polygon fill="black" stroke="black" points="572.99,-682.71 581.17,-675.98 570.58,-676.14 572.99,-682.71"/>
<text text-anchor="middle" x="450.13" y="-739.01" font-family="Times New Roman,serif" font-size="12.00">22</text>
</g>
<!-- &#45;856100964607189629&#45;&gt;8956805017555851408 -->
<g id="edge18" class="edge">
<title>&#45;856100964607189629&#45;&gt;8956805017555851408</title>
<path fill="none" stroke="black" stroke-width="1.73" d="M137.18,-811.29C116.4,-796.44 92,-772.9 92,-744.29 92,-744.29 92,-744.29 92,-569.79 92,-561.87 264.1,-351.91 271,-348.04 304.92,-329.01 407.77,-319.91 475.19,-315.89"/>
<polygon fill="black" stroke="black" stroke-width="1.73" points="475.36,-319.38 485.15,-315.32 474.96,-312.39 475.36,-319.38"/>
<text text-anchor="middle" x="107" y="-566.51" font-family="Times New Roman,serif" font-size="12.00">46952</text>
</g>
<!-- &#45;856100964607189629&#45;&gt;7532801311523443952 -->
<g id="edge19" class="edge">
<title>&#45;856100964607189629&#45;&gt;7532801311523443952</title>
<path fill="none" stroke="black" stroke-width="2.6" d="M170.92,-811.29C181.85,-773.62 209.59,-681.39 240,-606.79 240.71,-605.04 241.47,-603.26 242.26,-601.47"/>
<polygon fill="black" stroke="black" stroke-width="2.6" points="245.34,-603.14 246.41,-592.6 239,-600.17 245.34,-603.14"/>
<text text-anchor="middle" x="225.5" y="-695.89" font-family="Times New Roman,serif" font-size="12.00">103392</text>
</g>
<!-- &#45;4008819772462267442&#45;&gt;3787343957651093219 -->
<g id="edge20" class="edge">
<title>&#45;4008819772462267442&#45;&gt;3787343957651093219</title>
<path fill="none" stroke="black" stroke-width="1.05" d="M721.12,-675.51C765.51,-686.19 818.72,-702.3 863,-725.29 906,-747.61 907.14,-767.5 948,-793.54 954.77,-797.85 962.16,-802.02 969.52,-805.89"/>
<polygon fill="black" stroke="black" stroke-width="1.05" points="967.93,-809.01 978.43,-810.42 971.1,-802.77 967.93,-809.01"/>
<text text-anchor="middle" x="921.17" y="-739.01" font-family="Times New Roman,serif" font-size="12.00">2933</text>
</g>
<!-- &#45;4008819772462267442&#45;&gt;2066746601693270086 -->
<g id="edge21" class="edge">
<title>&#45;4008819772462267442&#45;&gt;2066746601693270086</title>
<path fill="none" stroke="black" d="M637.54,-675.44C642.56,-685.59 649.89,-698.15 659,-707.29 663.1,-711.4 667.78,-715.21 672.66,-718.7"/>
<polygon fill="black" stroke="black" points="670.68,-721.58 680.96,-724.14 674.52,-715.73 670.68,-721.58"/>
<text text-anchor="middle" x="662" y="-695.89" font-family="Times New Roman,serif" font-size="12.00">7</text>
</g>
<!-- 6890088878713669347 -->
<g id="node5" class="node">
<title>6890088878713669347</title>
<polygon fill="#cacaff" stroke="black" points="526,-243.79 360,-243.79 360,-207.79 526,-207.79 526,-243.79"/>
<text text-anchor="middle" x="443" y="-221.51" font-family="Times New Roman,serif" font-size="12.00">Insert Fine Notification (79860)</text>
</g>
<!-- &#45;4008819772462267442&#45;&gt;6890088878713669347 -->
<g id="edge22" class="edge">
<title>&#45;4008819772462267442&#45;&gt;6890088878713669347</title>
<path fill="none" stroke="black" d="M528.62,-644.48C497.8,-639.07 469.12,-631.45 458,-621.04 399.01,-565.83 368.16,-335.16 402,-261.79 403.57,-258.39 405.65,-255.19 408.04,-252.23"/>
<polygon fill="black" stroke="black" points="410.48,-254.74 414.9,-245.12 405.44,-249.88 410.48,-254.74"/>
<text text-anchor="middle" x="401.19" y="-437.14" font-family="Times New Roman,serif" font-size="12.00">25</text>
</g>
<!-- &#45;4008819772462267442&#45;&gt;8956805017555851408 -->
<g id="edge23" class="edge">
<title>&#45;4008819772462267442&#45;&gt;8956805017555851408</title>
<path fill="none" stroke="black" d="M623.41,-638.54C608.84,-599.3 573.56,-501.04 553,-416.29 546.96,-391.38 542.71,-362.52 540.12,-341.65"/>
<polygon fill="black" stroke="black" points="543.62,-341.4 538.96,-331.89 536.66,-342.23 543.62,-341.4"/>
<text text-anchor="middle" x="582.46" y="-480.26" font-family="Times New Roman,serif" font-size="12.00">14</text>
</g>
<!-- &#45;4008819772462267442&#45;&gt;7302858260821024098 -->
<g id="edge24" class="edge">
<title>&#45;4008819772462267442&#45;&gt;7302858260821024098</title>
<path fill="none" stroke="black" d="M658.17,-638.57C703.06,-610.59 793.35,-553.65 868,-502.54 910.6,-473.37 918.11,-461.48 962,-434.29 968.83,-430.06 976.22,-425.85 983.51,-421.9"/>
<polygon fill="black" stroke="black" points="984.81,-425.17 992,-417.39 981.53,-418.99 984.81,-425.17"/>
<text text-anchor="middle" x="847.09" y="-523.39" font-family="Times New Roman,serif" font-size="12.00">35</text>
</g>
<!-- &#45;4008819772462267442&#45;&gt;&#45;6638202949322909420 -->
<g id="edge25" class="edge">
<title>&#45;4008819772462267442&#45;&gt;&#45;6638202949322909420</title>
<path fill="none" stroke="black" stroke-width="1.02" d="M629.08,-638.65C628.66,-617.34 630.27,-580.62 643.75,-552.79 653.73,-532.17 672.86,-517.71 693.35,-507.64"/>
<polygon fill="black" stroke="black" stroke-width="1.02" points="694.74,-510.85 702.41,-503.53 691.85,-504.47 694.74,-510.85"/>
<text text-anchor="middle" x="655.38" y="-566.51" font-family="Times New Roman,serif" font-size="12.00">1159</text>
</g>
<!-- &#45;4008819772462267442&#45;&gt;7532801311523443952 -->
<g id="edge26" class="edge">
<title>&#45;4008819772462267442&#45;&gt;7532801311523443952</title>
<path fill="none" stroke="black" d="M528.8,-647.93C482.05,-642.69 426.13,-634.29 377,-621.04 351.87,-614.26 324.97,-603.56 303.02,-593.86"/>
<polygon fill="black" stroke="black" points="304.61,-590.74 294.05,-589.83 301.73,-597.12 304.61,-590.74"/>
<text text-anchor="middle" x="383" y="-609.64" font-family="Times New Roman,serif" font-size="12.00">15</text>
</g>
<!-- 6890088878713669347&#45;&gt;3787343957651093219 -->
<g id="edge27" class="edge">
<title>6890088878713669347&#45;&gt;3787343957651093219</title>
<path fill="none" stroke="black" stroke-width="2.12" d="M359.85,-235.22C269.66,-245.65 132.7,-265.56 89,-294.04 61.48,-311.97 46,-321.31 46,-354.16 46,-528.66 46,-528.66 46,-528.66 46,-595.25 34.13,-624.94 78,-675.04 179.83,-791.34 253.57,-762.48 405,-793.54 506.96,-814.45 809.73,-823.81 948.32,-827.08"/>
<polygon fill="black" stroke="black" stroke-width="2.12" points="947.92,-830.57 958,-827.31 948.08,-823.58 947.92,-830.57"/>
<text text-anchor="middle" x="61" y="-523.39" font-family="Times New Roman,serif" font-size="12.00">72334</text>
</g>
<!-- 6890088878713669347&#45;&gt;2066746601693270086 -->
<g id="edge28" class="edge">
<title>6890088878713669347&#45;&gt;2066746601693270086</title>
<path fill="none" stroke="black" d="M359.64,-236.17C314.48,-244.89 260.09,-261.68 221,-294.04 139.47,-361.51 74.24,-401.59 106,-502.54 122.66,-555.48 200.78,-679.82 249,-707.29 253.26,-709.71 514.82,-728.18 645.43,-737.27"/>
<polygon fill="black" stroke="black" points="645.15,-740.75 655.37,-737.96 645.64,-733.77 645.15,-740.75"/>
<text text-anchor="middle" x="115" y="-480.26" font-family="Times New Roman,serif" font-size="12.00">290</text>
</g>
<!-- 6890088878713669347&#45;&gt;&#45;4008819772462267442 -->
<g id="edge29" class="edge">
<title>6890088878713669347&#45;&gt;&#45;4008819772462267442</title>
<path fill="none" stroke="black" stroke-width="1.05" d="M439.74,-244.19C431.43,-293.46 413.79,-436.64 468,-534.79 493.02,-580.09 542.9,-613.41 580.74,-633.53"/>
<polygon fill="black" stroke="black" stroke-width="1.05" points="578.66,-636.4 589.15,-637.88 581.88,-630.18 578.66,-636.4"/>
<text text-anchor="middle" x="449.94" y="-437.14" font-family="Times New Roman,serif" font-size="12.00">3327</text>
</g>
<!-- 6890088878713669347&#45;&gt;8956805017555851408 -->
<g id="edge30" class="edge">
<title>6890088878713669347&#45;&gt;8956805017555851408</title>
<path fill="none" stroke="black" stroke-width="1.06" d="M453.99,-243.98C460.96,-254.06 470.6,-266.61 481,-276.04 485.35,-279.98 490.2,-283.74 495.17,-287.24"/>
<polygon fill="black" stroke="black" stroke-width="1.06" points="493.19,-290.13 503.46,-292.74 497.06,-284.29 493.19,-290.13"/>
<text text-anchor="middle" x="493" y="-264.64" font-family="Times New Roman,serif" font-size="12.00">3891</text>
</g>
<!-- 6890088878713669347&#45;&gt;7302858260821024098 -->
<g id="edge31" class="edge">
<title>6890088878713669347&#45;&gt;7302858260821024098</title>
<path fill="none" stroke="black" d="M526.42,-231.89C647.4,-239.53 858.86,-253.89 874,-261.79 925.36,-288.58 911.47,-326.47 957,-362.29 962.8,-366.85 969.29,-371.02 975.93,-374.77"/>
<polygon fill="black" stroke="black" points="973.9,-377.66 984.38,-379.25 977.18,-371.48 973.9,-377.66"/>
<text text-anchor="middle" x="931.7" y="-307.76" font-family="Times New Roman,serif" font-size="12.00">2</text>
</g>
<!-- 6890088878713669347&#45;&gt;&#45;6638202949322909420 -->
<g id="edge32" class="edge">
<title>6890088878713669347&#45;&gt;&#45;6638202949322909420</title>
<path fill="none" stroke="black" d="M526.31,-230.55C562.3,-234.94 603.89,-243.88 638,-261.79 718.26,-303.92 665.45,-376.14 720,-448.54 722.87,-452.35 726.29,-455.88 729.98,-459.12"/>
<polygon fill="black" stroke="black" points="727.72,-461.8 737.76,-465.2 732.03,-456.29 727.72,-461.8"/>
<text text-anchor="middle" x="696.52" y="-350.89" font-family="Times New Roman,serif" font-size="12.00">16</text>
</g>
<!-- &#45;7696327180329825838&#45;&gt;3787343957651093219 -->
<g id="edge33" class="edge">
<title>&#45;7696327180329825838&#45;&gt;3787343957651093219</title>
<path fill="none" stroke="black" d="M1116.8,-230.82C1164.98,-235.19 1222.64,-244.03 1272,-261.79 1367.43,-296.11 1414,-338.99 1414,-440.41 1414,-744.29 1414,-744.29 1414,-744.29 1414,-810.13 1201.43,-824.71 1088.16,-827.8"/>
<polygon fill="black" stroke="black" points="1088.28,-824.3 1078.37,-828.04 1088.46,-831.3 1088.28,-824.3"/>
<text text-anchor="middle" x="1420" y="-523.39" font-family="Times New Roman,serif" font-size="12.00">12</text>
</g>
<!-- &#45;7696327180329825838&#45;&gt;2066746601693270086 -->
<g id="edge34" class="edge">
<title>&#45;7696327180329825838&#45;&gt;2066746601693270086</title>
<path fill="none" stroke="black" d="M1047.33,-244.22C1088.49,-268.49 1157.64,-316.71 1186,-380.29 1204.89,-422.63 1208.06,-553.48 1178,-588.79 1152.68,-618.52 1127.58,-590.69 1092,-606.79 1045.94,-627.63 1046.67,-653.35 1001,-675.04 947.23,-700.57 929.05,-694.09 871,-707.29 835.96,-715.25 824.5,-716.23 790.03,-723.94"/>
<polygon fill="black" stroke="black" points="789.55,-720.46 780.58,-726.1 791.11,-727.29 789.55,-720.46"/>
<text text-anchor="middle" x="1209.4" y="-480.26" font-family="Times New Roman,serif" font-size="12.00">145</text>
</g>
<!-- &#45;7696327180329825838&#45;&gt;8956805017555851408 -->
<g id="edge35" class="edge">
<title>&#45;7696327180329825838&#45;&gt;8956805017555851408</title>
<path fill="none" stroke="black" stroke-width="1.01" d="M913.29,-232.85C871.09,-237.67 822.22,-246.32 780,-261.79 768.71,-265.92 768.27,-271.84 757,-276.04 705.15,-295.33 642.55,-303.99 597.41,-307.88"/>
<polygon fill="black" stroke="black" stroke-width="1.01" points="597.24,-304.38 587.55,-308.66 597.8,-311.36 597.24,-304.38"/>
<text text-anchor="middle" x="789" y="-264.64" font-family="Times New Roman,serif" font-size="12.00">391</text>
</g>
<!-- &#45;7696327180329825838&#45;&gt;7302858260821024098 -->
<g id="edge36" class="edge">
<title>&#45;7696327180329825838&#45;&gt;7302858260821024098</title>
<path fill="none" stroke="black" d="M1016.42,-244.12C1018.84,-273.51 1023.75,-333.39 1026.67,-368.95"/>
<polygon fill="black" stroke="black" points="1023.15,-368.81 1027.46,-378.49 1030.13,-368.24 1023.15,-368.81"/>
<text text-anchor="middle" x="1026.39" y="-307.76" font-family="Times New Roman,serif" font-size="12.00">2</text>
</g>
<!-- &#45;7696327180329825838&#45;&gt;&#45;6638202949322909420 -->
<g id="edge37" class="edge">
<title>&#45;7696327180329825838&#45;&gt;&#45;6638202949322909420</title>
<path fill="none" stroke="black" d="M1004.47,-244.2C979.28,-284.66 911.73,-386.31 833,-448.54 827.78,-452.66 822.03,-456.61 816.2,-460.28"/>
<polygon fill="black" stroke="black" points="814.46,-457.24 807.69,-465.38 818.07,-463.24 814.46,-457.24"/>
<text text-anchor="middle" x="932.57" y="-350.89" font-family="Times New Roman,serif" font-size="12.00">3</text>
</g>
<!-- &#45;7696327180329825838&#45;&gt;3117666911775492610 -->
<g id="edge38" class="edge">
<title>&#45;7696327180329825838&#45;&gt;3117666911775492610</title>
<path fill="none" stroke="black" d="M1000.08,-207.33C990.04,-195.58 976.62,-179.88 965.32,-166.65"/>
<polygon fill="black" stroke="black" points="968.04,-164.45 958.89,-159.13 962.72,-169 968.04,-164.45"/>
<text text-anchor="middle" x="992.31" y="-178.39" font-family="Times New Roman,serif" font-size="12.00">257</text>
</g>
<!-- &#45;7696327180329825838&#45;&gt;@@endnode -->
<g id="edge77" class="edge">
<title>&#45;7696327180329825838&#45;&gt;@@endnode</title>
<path fill="none" stroke="black" d="M937.37,-207.35C902.73,-196.9 862.86,-180.98 832,-157.54 804.19,-136.41 781.5,-103.92 766.28,-77.94"/>
<polygon fill="black" stroke="black" points="769.35,-76.26 761.37,-69.3 763.27,-79.72 769.35,-76.26"/>
<text text-anchor="middle" x="838" y="-135.26" font-family="Times New Roman,serif" font-size="12.00">86</text>
</g>
<!-- 8956805017555851408&#45;&gt;3787343957651093219 -->
<g id="edge39" class="edge">
<title>8956805017555851408&#45;&gt;3787343957651093219</title>
<path fill="none" stroke="black" stroke-width="1.06" d="M586.09,-316.51C662.05,-322.06 812.63,-333.77 940,-348.04 1044.77,-359.77 1088.24,-320.4 1175,-380.29 1251.81,-433.3 1234.36,-502.01 1200,-588.79 1161.73,-685.42 1161.55,-721.11 1087,-793.54 1082.54,-797.87 1077.43,-801.79 1072.06,-805.31"/>
<polygon fill="black" stroke="black" stroke-width="1.06" points="1070.37,-802.24 1063.58,-810.37 1073.96,-808.25 1070.37,-802.24"/>
<text text-anchor="middle" x="1225.22" y="-566.51" font-family="Times New Roman,serif" font-size="12.00">3902</text>
</g>
<!-- 8956805017555851408&#45;&gt;2066746601693270086 -->
<g id="edge40" class="edge">
<title>8956805017555851408&#45;&gt;2066746601693270086</title>
<path fill="none" stroke="black" d="M511.45,-330.28C466.51,-362.9 378,-438.36 378,-526.66 378,-658.04 378,-658.04 378,-658.04 378,-712.71 545.75,-732.15 645.59,-738.87"/>
<polygon fill="black" stroke="black" points="645.11,-742.35 655.31,-739.49 645.56,-735.36 645.11,-742.35"/>
<text text-anchor="middle" x="381" y="-523.39" font-family="Times New Roman,serif" font-size="12.00">2</text>
</g>
<!-- 8956805017555851408&#45;&gt;&#45;4008819772462267442 -->
<g id="edge41" class="edge">
<title>8956805017555851408&#45;&gt;&#45;4008819772462267442</title>
<path fill="none" stroke="black" d="M536.61,-330.37C536.5,-339.81 536.51,-351.69 537,-362.29 541.77,-465.46 544.65,-495.51 589,-588.79 595.56,-602.58 604.2,-617.14 611.86,-629.18"/>
<polygon fill="black" stroke="black" points="608.79,-630.87 617.17,-637.35 614.66,-627.06 608.79,-630.87"/>
<text text-anchor="middle" x="556.89" y="-480.26" font-family="Times New Roman,serif" font-size="12.00">2</text>
</g>
<!-- 8956805017555851408&#45;&gt;6890088878713669347 -->
<g id="edge42" class="edge">
<title>8956805017555851408&#45;&gt;6890088878713669347</title>
<path fill="none" stroke="black" d="M528.4,-293.58C522.76,-283.42 514.66,-270.86 505,-261.79 500.55,-257.61 495.51,-253.74 490.28,-250.21"/>
<polygon fill="black" stroke="black" points="492.35,-247.38 482.01,-245.06 488.64,-253.32 492.35,-247.38"/>
<text text-anchor="middle" x="522.6" y="-264.64" font-family="Times New Roman,serif" font-size="12.00">74</text>
</g>
<!-- 8956805017555851408&#45;&gt;&#45;7696327180329825838 -->
<g id="edge43" class="edge">
<title>8956805017555851408&#45;&gt;&#45;7696327180329825838</title>
<path fill="none" stroke="black" d="M586.27,-305.77C638.9,-299.83 724.66,-289.25 798,-276.04 843.45,-267.85 893.77,-256.57 934.5,-246.87"/>
<polygon fill="black" stroke="black" points="935.07,-250.33 943.98,-244.6 933.44,-243.52 935.07,-250.33"/>
<text text-anchor="middle" x="866.97" y="-264.64" font-family="Times New Roman,serif" font-size="12.00">1</text>
</g>
<!-- 8956805017555851408&#45;&gt;8956805017555851408 -->
<g id="edge44" class="edge">
<title>8956805017555851408&#45;&gt;8956805017555851408</title>
<path fill="none" stroke="black" stroke-width="1.07" d="M586.28,-319.84C596.52,-319.02 603.88,-316.42 603.88,-312.04 603.88,-309.57 601.55,-307.67 597.69,-306.33"/>
<polygon fill="black" stroke="black" stroke-width="1.07" points="598.34,-302.9 587.87,-304.53 597.07,-309.78 598.34,-302.9"/>
<text text-anchor="middle" x="615.88" y="-307.76" font-family="Times New Roman,serif" font-size="12.00">4306</text>
</g>
<!-- 8956805017555851408&#45;&gt;7302858260821024098 -->
<g id="edge45" class="edge">
<title>8956805017555851408&#45;&gt;7302858260821024098</title>
<path fill="none" stroke="black" d="M586.36,-321.93C642.09,-331.93 735.51,-348.57 816,-362.29 846.43,-367.47 879.34,-372.95 909.97,-377.98"/>
<polygon fill="black" stroke="black" points="909.22,-381.41 919.65,-379.57 910.35,-374.5 909.22,-381.41"/>
<text text-anchor="middle" x="819" y="-350.89" font-family="Times New Roman,serif" font-size="12.00">2</text>
</g>
<!-- 8956805017555851408&#45;&gt;&#45;6638202949322909420 -->
<g id="edge46" class="edge">
<title>8956805017555851408&#45;&gt;&#45;6638202949322909420</title>
<path fill="none" stroke="black" d="M540.41,-330.25C547.14,-359.42 564.98,-418.35 604,-448.54 615.7,-457.59 643.6,-464.88 673.38,-470.42"/>
<polygon fill="black" stroke="black" points="672.46,-473.82 682.91,-472.12 673.68,-466.92 672.46,-473.82"/>
<text text-anchor="middle" x="577.12" y="-394.01" font-family="Times New Roman,serif" font-size="12.00">4</text>
</g>
<!-- 8956805017555851408&#45;&gt;7532801311523443952 -->
<g id="edge47" class="edge">
<title>8956805017555851408&#45;&gt;7532801311523443952</title>
<path fill="none" stroke="black" stroke-width="1.01" d="M487.83,-313.87C424,-315.96 317.29,-323.18 288,-348.04 232.25,-395.33 241.68,-492.81 250.61,-541.22"/>
<polygon fill="black" stroke="black" stroke-width="1.01" points="247.16,-541.78 252.54,-550.91 254.02,-540.42 247.16,-541.78"/>
<text text-anchor="middle" x="255.03" y="-437.14" font-family="Times New Roman,serif" font-size="12.00">569</text>
</g>
<!-- 8956805017555851408&#45;&gt;3117666911775492610 -->
<g id="edge48" class="edge">
<title>8956805017555851408&#45;&gt;3117666911775492610</title>
<path fill="none" stroke="black" stroke-width="1.02" d="M586.22,-300.65C609.94,-294.82 638.5,-286.58 663,-276.04 742.57,-241.8 750.94,-210.94 830,-175.54 841.53,-170.37 854.03,-165.67 866.39,-161.51"/>
<polygon fill="black" stroke="black" stroke-width="1.02" points="867.28,-164.9 875.7,-158.47 865.11,-158.24 867.28,-164.9"/>
<text text-anchor="middle" x="782.85" y="-221.51" font-family="Times New Roman,serif" font-size="12.00">1538</text>
</g>
<!-- 8956805017555851408&#45;&gt;@@endnode -->
<g id="edge74" class="edge">
<title>8956805017555851408&#45;&gt;@@endnode</title>
<path fill="none" stroke="black" d="M550.01,-293.87C583.19,-250.1 671.53,-133.56 717.04,-73.53"/>
<polygon fill="black" stroke="black" points="719.79,-75.69 723.05,-65.6 714.22,-71.46 719.79,-75.69"/>
<text text-anchor="middle" x="653.6" y="-178.39" font-family="Times New Roman,serif" font-size="12.00">67201</text>
</g>
<!-- 7302858260821024098&#45;&gt;3787343957651093219 -->
<g id="edge49" class="edge">
<title>7302858260821024098&#45;&gt;3787343957651093219</title>
<path fill="none" stroke="black" d="M1039.28,-416.52C1042.02,-422.01 1044.61,-428.23 1046,-434.29 1076.91,-568.67 1042.64,-735.06 1026.49,-800.36"/>
<polygon fill="black" stroke="black" points="1023.14,-799.33 1024.07,-809.88 1029.92,-801.05 1023.14,-799.33"/>
<text text-anchor="middle" x="1062.83" y="-609.64" font-family="Times New Roman,serif" font-size="12.00">51</text>
</g>
<!-- 7302858260821024098&#45;&gt;2066746601693270086 -->
<g id="edge50" class="edge">
<title>7302858260821024098&#45;&gt;2066746601693270086</title>
<path fill="none" stroke="black" d="M1031.75,-416.69C1038.46,-466.19 1049.86,-608.51 972,-675.04 938.33,-703.8 916.38,-680.18 874,-693.04 858.71,-697.68 856.05,-701.92 841,-707.29 824.7,-713.1 806.93,-718.61 790.09,-723.47"/>
<polygon fill="black" stroke="black" points="789.3,-720.06 780.64,-726.16 791.21,-726.79 789.3,-720.06"/>
<text text-anchor="middle" x="1037.59" y="-566.51" font-family="Times New Roman,serif" font-size="12.00">13</text>
</g>
<!-- 7302858260821024098&#45;&gt;&#45;4008819772462267442 -->
<g id="edge51" class="edge">
<title>7302858260821024098&#45;&gt;&#45;4008819772462267442</title>
<path fill="none" stroke="black" d="M1008.05,-416.71C1001.32,-422.31 993.84,-428.56 987,-434.29 898.73,-508.25 878.79,-531.31 779,-588.79 750.36,-605.28 742.09,-607.38 712,-621.04 702.48,-625.36 692.27,-629.84 682.4,-634.09"/>
<polygon fill="black" stroke="black" points="681.08,-630.84 673.27,-638 683.84,-637.28 681.08,-630.84"/>
<text text-anchor="middle" x="886.36" y="-523.39" font-family="Times New Roman,serif" font-size="12.00">1</text>
</g>
<!-- 7302858260821024098&#45;&gt;&#45;7696327180329825838 -->
<g id="edge52" class="edge">
<title>7302858260821024098&#45;&gt;&#45;7696327180329825838</title>
<path fill="none" stroke="black" stroke-width="1.01" d="M1035.55,-380.09C1037.37,-374.49 1039.09,-368.2 1040,-362.29 1044.37,-333.78 1047.34,-316.71 1032,-261.79 1031.32,-259.35 1030.48,-256.89 1029.53,-254.45"/>
<polygon fill="black" stroke="black" stroke-width="1.01" points="1032.82,-253.22 1025.56,-245.51 1026.42,-256.06 1032.82,-253.22"/>
<text text-anchor="middle" x="1052.52" y="-307.76" font-family="Times New Roman,serif" font-size="12.00">829</text>
</g>
<!-- 7302858260821024098&#45;&gt;8956805017555851408 -->
<g id="edge53" class="edge">
<title>7302858260821024098&#45;&gt;8956805017555851408</title>
<path fill="none" stroke="black" d="M914.29,-382.2C890.92,-377.27 866.82,-370.78 845,-362.29 833.79,-357.92 833.34,-352.03 822,-348.04 747.72,-321.89 656.59,-314.68 597.69,-313"/>
<polygon fill="black" stroke="black" points="597.95,-309.51 587.87,-312.77 597.78,-316.5 597.95,-309.51"/>
<text text-anchor="middle" x="851" y="-350.89" font-family="Times New Roman,serif" font-size="12.00">36</text>
</g>
<!-- 7302858260821024098&#45;&gt;&#45;6638202949322909420 -->
<g id="edge54" class="edge">
<title>7302858260821024098&#45;&gt;&#45;6638202949322909420</title>
<path fill="none" stroke="black" d="M967.2,-416.72C952.14,-421.73 936.27,-427.65 922,-434.29 911.1,-439.36 910.02,-443.72 899,-448.54 886.6,-453.95 873.14,-458.74 859.78,-462.89"/>
<polygon fill="black" stroke="black" points="859.14,-459.43 850.56,-465.65 861.15,-466.13 859.14,-459.43"/>
<text text-anchor="middle" x="928" y="-437.14" font-family="Times New Roman,serif" font-size="12.00">15</text>
</g>
<!-- 7302858260821024098&#45;&gt;3117666911775492610 -->
<g id="edge55" class="edge">
<title>7302858260821024098&#45;&gt;3117666911775492610</title>
<path fill="none" stroke="black" d="M1092.98,-379.85C1157.24,-358.76 1242.54,-318.84 1211,-261.79 1177.84,-201.81 1105.81,-171.4 1044.76,-156.03"/>
<polygon fill="black" stroke="black" points="1045.91,-152.71 1035.37,-153.78 1044.28,-159.51 1045.91,-152.71"/>
<text text-anchor="middle" x="1219.53" y="-264.64" font-family="Times New Roman,serif" font-size="12.00">1</text>
</g>
<!-- 7302858260821024098&#45;&gt;@@endnode -->
<g id="edge78" class="edge">
<title>7302858260821024098&#45;&gt;@@endnode</title>
<path fill="none" stroke="black" d="M1122.51,-379.79C1259.07,-350.18 1487.87,-282.72 1401,-175.54 1323.81,-80.3 929.62,-47.76 792.27,-39.21"/>
<polygon fill="black" stroke="black" points="792.64,-35.73 782.44,-38.62 792.21,-42.71 792.64,-35.73"/>
<text text-anchor="middle" x="1426.16" y="-221.51" font-family="Times New Roman,serif" font-size="12.00">53</text>
</g>
<!-- &#45;6638202949322909420&#45;&gt;3787343957651093219 -->
<g id="edge56" class="edge">
<title>&#45;6638202949322909420&#45;&gt;3787343957651093219</title>
<path fill="none" stroke="black" stroke-width="1.01" d="M794.12,-502.82C800.49,-508.22 807.26,-514.37 813,-520.54 890.06,-603.28 903.7,-629.63 964,-725.29 979.68,-750.16 995.21,-779.92 1005.75,-801.08"/>
<polygon fill="black" stroke="black" stroke-width="1.01" points="1002.55,-802.51 1010.11,-809.93 1008.83,-799.41 1002.55,-802.51"/>
<text text-anchor="middle" x="940.73" y="-652.76" font-family="Times New Roman,serif" font-size="12.00">347</text>
</g>
<!-- &#45;6638202949322909420&#45;&gt;2066746601693270086 -->
<g id="edge57" class="edge">
<title>&#45;6638202949322909420&#45;&gt;2066746601693270086</title>
<path fill="none" stroke="black" d="M777.36,-502.82C778.85,-508.41 780.26,-514.69 781,-520.54 781.79,-526.82 781.41,-528.47 781,-534.79 776.93,-597.82 774,-613.93 758,-675.04 754.16,-689.69 754.4,-694.07 747,-707.29 745.32,-710.29 743.37,-713.28 741.29,-716.18"/>
<polygon fill="black" stroke="black" points="738.71,-713.81 735.32,-723.85 744.23,-718.11 738.71,-713.81"/>
<text text-anchor="middle" x="776.67" y="-609.64" font-family="Times New Roman,serif" font-size="12.00">4</text>
</g>
<!-- &#45;6638202949322909420&#45;&gt;&#45;4008819772462267442 -->
<g id="edge58" class="edge">
<title>&#45;6638202949322909420&#45;&gt;&#45;4008819772462267442</title>
<path fill="none" stroke="black" d="M737.88,-502.96C729.84,-507.98 721.68,-513.92 715,-520.54 697.75,-537.63 664.39,-594.61 644.99,-629"/>
<polygon fill="black" stroke="black" points="642.03,-627.13 640.19,-637.56 648.13,-630.55 642.03,-627.13"/>
<text text-anchor="middle" x="693.45" y="-566.51" font-family="Times New Roman,serif" font-size="12.00">2</text>
</g>
<!-- &#45;6638202949322909420&#45;&gt;6890088878713669347 -->
<g id="edge59" class="edge">
<title>&#45;6638202949322909420&#45;&gt;6890088878713669347</title>
<path fill="none" stroke="black" d="M731.08,-466.1C722.49,-461.23 713.94,-455.37 707,-448.54 653.29,-395.64 692.1,-345.49 637,-294.04 609.61,-268.46 572,-252.55 537.19,-242.68"/>
<polygon fill="black" stroke="black" points="538.51,-239.41 527.95,-240.2 536.7,-246.17 538.51,-239.41"/>
<text text-anchor="middle" x="674.03" y="-350.89" font-family="Times New Roman,serif" font-size="12.00">4</text>
</g>
<!-- &#45;6638202949322909420&#45;&gt;&#45;7696327180329825838 -->
<g id="edge60" class="edge">
<title>&#45;6638202949322909420&#45;&gt;&#45;7696327180329825838</title>
<path fill="none" stroke="black" d="M791.45,-466.08C797.04,-460.68 802.98,-454.57 808,-448.54 834.38,-416.81 881.62,-323.01 911,-294.04 928.47,-276.81 951.03,-261.58 970.67,-249.99"/>
<polygon fill="black" stroke="black" points="972.39,-253.03 979.32,-245.02 968.9,-246.96 972.39,-253.03"/>
<text text-anchor="middle" x="874.38" y="-350.89" font-family="Times New Roman,serif" font-size="12.00">4</text>
</g>
<!-- &#45;6638202949322909420&#45;&gt;8956805017555851408 -->
<g id="edge61" class="edge">
<title>&#45;6638202949322909420&#45;&gt;8956805017555851408</title>
<path fill="none" stroke="black" d="M684.41,-467.62C670.22,-462.83 656.2,-456.61 644,-448.54 632.68,-441.04 583.8,-376.31 556.19,-339.09"/>
<polygon fill="black" stroke="black" points="559.33,-337.45 550.56,-331.49 553.7,-341.61 559.33,-337.45"/>
<text text-anchor="middle" x="619.83" y="-394.01" font-family="Times New Roman,serif" font-size="12.00">20</text>
</g>
<!-- &#45;6638202949322909420&#45;&gt;7302858260821024098 -->
<g id="edge62" class="edge">
<title>&#45;6638202949322909420&#45;&gt;7302858260821024098</title>
<path fill="none" stroke="black" stroke-width="1.01" d="M820.79,-466.22C833.22,-461.12 846.36,-455.13 858,-448.54 867.19,-443.34 867.43,-438.73 877,-434.29 889.21,-428.61 902.41,-423.83 915.75,-419.79"/>
<polygon fill="black" stroke="black" stroke-width="1.01" points="916.35,-423.26 925,-417.14 914.42,-416.53 916.35,-423.26"/>
<text text-anchor="middle" x="886" y="-437.14" font-family="Times New Roman,serif" font-size="12.00">606</text>
</g>
<!-- &#45;6638202949322909420&#45;&gt;7532801311523443952 -->
<g id="edge63" class="edge">
<title>&#45;6638202949322909420&#45;&gt;7532801311523443952</title>
<path fill="none" stroke="black" d="M684.39,-494.54C628.82,-500.73 555.49,-509.75 491,-520.54 434.26,-530.02 370.38,-543.67 323.72,-554.19"/>
<polygon fill="black" stroke="black" points="323,-550.77 314.02,-556.39 324.54,-557.6 323,-550.77"/>
<text text-anchor="middle" x="494" y="-523.39" font-family="Times New Roman,serif" font-size="12.00">7</text>
</g>
<!-- &#45;6638202949322909420&#45;&gt;3117666911775492610 -->
<g id="edge64" class="edge">
<title>&#45;6638202949322909420&#45;&gt;3117666911775492610</title>
<path fill="none" stroke="black" d="M774.69,-466.21C778.91,-440.24 787.9,-389.8 800,-348.04 800.18,-347.42 864.56,-176 865,-175.54 869.19,-171.08 874.06,-167.14 879.28,-163.69"/>
<polygon fill="black" stroke="black" points="880.84,-166.83 887.67,-158.73 877.28,-160.8 880.84,-166.83"/>
<text text-anchor="middle" x="823.13" y="-307.76" font-family="Times New Roman,serif" font-size="12.00">3</text>
</g>
<!-- &#45;6638202949322909420&#45;&gt;@@endnode -->
<g id="edge75" class="edge">
<title>&#45;6638202949322909420&#45;&gt;@@endnode</title>
<path fill="none" stroke="black" d="M768.21,-466.29C763.06,-442.79 753.64,-399.4 746,-362.29 738.13,-324.02 732.8,-314.92 729,-276.04 728.38,-269.73 727.99,-268.04 729,-261.79 730.35,-253.46 733.45,-252.07 735,-243.79 745.23,-189.12 746.76,-125 746.36,-82.74"/>
<polygon fill="black" stroke="black" points="749.86,-82.89 746.22,-72.94 742.86,-82.99 749.86,-82.89"/>
<text text-anchor="middle" x="741" y="-264.64" font-family="Times New Roman,serif" font-size="12.00">3144</text>
</g>
<!-- 7532801311523443952&#45;&gt;2066746601693270086 -->
<g id="edge65" class="edge">
<title>7532801311523443952&#45;&gt;2066746601693270086</title>
<path fill="none" stroke="black" d="M260.21,-589.03C266.75,-618.8 284.66,-679.34 326,-707.29 351.81,-724.73 539.75,-735.08 645.75,-739.59"/>
<polygon fill="black" stroke="black" points="645.35,-743.08 655.49,-740 645.64,-736.09 645.35,-743.08"/>
<text text-anchor="middle" x="300.71" y="-652.76" font-family="Times New Roman,serif" font-size="12.00">10</text>
</g>
<!-- 7532801311523443952&#45;&gt;&#45;4008819772462267442 -->
<g id="edge66" class="edge">
<title>7532801311523443952&#45;&gt;&#45;4008819772462267442</title>
<path fill="none" stroke="black" d="M312.49,-582.65C336.55,-588.33 364.72,-596.32 389,-606.79 400.04,-611.55 400.73,-616.83 412,-621.04 445.22,-633.42 482.89,-641.43 517.46,-646.6"/>
<polygon fill="black" stroke="black" points="516.67,-650.02 527.06,-647.97 517.66,-643.09 516.67,-650.02"/>
<text text-anchor="middle" x="421" y="-609.64" font-family="Times New Roman,serif" font-size="12.00">161</text>
</g>
<!-- 7532801311523443952&#45;&gt;6890088878713669347 -->
<g id="edge67" class="edge">
<title>7532801311523443952&#45;&gt;6890088878713669347</title>
<path fill="none" stroke="black" stroke-width="2.23" d="M245.81,-552.34C222.17,-513.08 172.46,-415.93 212,-348.04 242.01,-296.51 302.24,-265.91 353.67,-248.35"/>
<polygon fill="black" stroke="black" stroke-width="2.23" points="354.56,-251.74 362.98,-245.31 352.39,-245.08 354.56,-251.74"/>
<text text-anchor="middle" x="214.82" y="-394.01" font-family="Times New Roman,serif" font-size="12.00">79757</text>
</g>
<!-- 7532801311523443952&#45;&gt;8956805017555851408 -->
<g id="edge68" class="edge">
<title>7532801311523443952&#45;&gt;8956805017555851408</title>
<path fill="none" stroke="black" stroke-width="1.05" d="M259.97,-552.57C268.47,-505.38 294.31,-375.65 326,-348.04 347.95,-328.91 422.21,-320.08 476.44,-316.11"/>
<polygon fill="black" stroke="black" stroke-width="1.05" points="476.36,-319.63 486.09,-315.45 475.88,-312.64 476.36,-319.63"/>
<text text-anchor="middle" x="298.23" y="-437.14" font-family="Times New Roman,serif" font-size="12.00">3300</text>
</g>
<!-- 7532801311523443952&#45;&gt;&#45;6638202949322909420 -->
<g id="edge69" class="edge">
<title>7532801311523443952&#45;&gt;&#45;6638202949322909420</title>
<path fill="none" stroke="black" d="M312.62,-562.03C360.69,-555.22 432.01,-544.85 494,-534.79 553.62,-525.1 620.26,-513.33 673.35,-503.72"/>
<polygon fill="black" stroke="black" points="673.76,-507.21 682.98,-501.98 672.51,-500.32 673.76,-507.21"/>
<text text-anchor="middle" x="581.18" y="-523.39" font-family="Times New Roman,serif" font-size="12.00">4</text>
</g>
<!-- 7532801311523443952&#45;&gt;@@endnode -->
<g id="edge72" class="edge">
<title>7532801311523443952&#45;&gt;@@endnode</title>
<path fill="none" stroke="black" d="M239.03,-552.38C196.26,-509 92,-390.84 92,-269.91 92,-269.91 92,-269.91 92,-138.54 92,-77.16 548.12,-47.2 697.95,-39.02"/>
<polygon fill="black" stroke="black" points="698.12,-42.51 707.92,-38.48 697.74,-35.53 698.12,-42.51"/>
<text text-anchor="middle" x="114.27" y="-307.76" font-family="Times New Roman,serif" font-size="12.00">20755</text>
</g>
<!-- 3117666911775492610&#45;&gt;&#45;6638202949322909420 -->
<g id="edge70" class="edge">
<title>3117666911775492610&#45;&gt;&#45;6638202949322909420</title>
<path fill="none" stroke="black" d="M932.02,-157.84C910.04,-192.88 859.78,-275.09 825,-348.04 807.7,-384.31 791.44,-427.82 781.6,-455.57"/>
<polygon fill="black" stroke="black" points="778.42,-454.06 778.42,-464.66 785.03,-456.38 778.42,-454.06"/>
<text text-anchor="middle" x="858.04" y="-307.76" font-family="Times New Roman,serif" font-size="12.00">16</text>
</g>
<!-- 3117666911775492610&#45;&gt;@@endnode -->
<g id="edge73" class="edge">
<title>3117666911775492610&#45;&gt;@@endnode</title>
<path fill="none" stroke="black" d="M909.41,-121.25C875.43,-103.76 822.82,-76.69 786.31,-57.9"/>
<polygon fill="black" stroke="black" points="788.3,-54.99 777.81,-53.53 785.1,-61.21 788.3,-54.99"/>
<text text-anchor="middle" x="888.3" y="-92.14" font-family="Times New Roman,serif" font-size="12.00">58997</text>
</g>
<!-- @@startnode -->
<g id="node12" class="node">
<title>@@startnode</title>
<ellipse fill="none" stroke="black" cx="166" cy="-930.49" rx="32.7" ry="32.7"/>
<text text-anchor="start" x="155.88" y="-917.31" font-family="Times New Roman,serif" font-size="34.00">●</text>
</g>
<!-- @@startnode&#45;&gt;&#45;856100964607189629 -->
<g id="edge71" class="edge">
<title>@@startnode&#45;&gt;&#45;856100964607189629</title>
<path fill="none" stroke="black" d="M166,-897.36C166,-885 166,-870.99 166,-859"/>
<polygon fill="black" stroke="black" points="169.5,-859.33 166,-849.33 162.5,-859.33 169.5,-859.33"/>
<text text-anchor="middle" x="184" y="-868.39" font-family="Times New Roman,serif" font-size="12.00">150370</text>
</g>
</g>
</svg>
